<?xml version="1.0" encoding="UTF-8"?> <svg xmlns="http://www.w3.org/2000/svg" width="375" height="40" viewBox="0 0 375 40" fill="none"> <path d="M225.081 8.049V12.999C224.433 13.467 223.74 13.818 223.002 14.052C222.27 14.28 221.466 14.394 220.59 14.394C219.552 14.394 218.616 14.235 217.782 13.917C216.948 13.593 216.234 13.143 215.64 12.567C215.052 11.985 214.599 11.289 214.281 10.479C213.963 9.669 213.804 8.778 213.804 7.806C213.804 6.822 213.957 5.925 214.263 5.115C214.575 4.305 215.016 3.612 215.586 3.036C216.156 2.454 216.849 2.004 217.665 1.686C218.481 1.368 219.393 1.209 220.401 1.209C220.911 1.209 221.385 1.248 221.823 1.326C222.261 1.398 222.666 1.506 223.038 1.65C223.41 1.788 223.755 1.959 224.073 2.163C224.391 2.361 224.688 2.586 224.964 2.838L224.469 3.63C224.391 3.75 224.289 3.828 224.163 3.864C224.043 3.894 223.908 3.864 223.758 3.774C223.614 3.69 223.449 3.588 223.263 3.468C223.077 3.348 222.849 3.234 222.579 3.126C222.315 3.012 222 2.916 221.634 2.838C221.274 2.76 220.845 2.721 220.347 2.721C219.621 2.721 218.964 2.841 218.376 3.081C217.788 3.315 217.287 3.654 216.873 4.098C216.459 4.536 216.141 5.07 215.919 5.7C215.697 6.324 215.586 7.026 215.586 7.806C215.586 8.616 215.7 9.342 215.928 9.984C216.162 10.62 216.492 11.163 216.918 11.613C217.35 12.057 217.872 12.396 218.484 12.63C219.096 12.864 219.783 12.981 220.545 12.981C221.145 12.981 221.676 12.915 222.138 12.783C222.606 12.645 223.062 12.456 223.506 12.216V9.381H221.499C221.385 9.381 221.292 9.348 221.22 9.282C221.154 9.216 221.121 9.135 221.121 9.039V8.049H225.081ZM232.263 10.146C231.525 10.17 230.895 10.23 230.373 10.326C229.857 10.416 229.434 10.536 229.104 10.686C228.78 10.836 228.543 11.013 228.393 11.217C228.249 11.421 228.177 11.649 228.177 11.901C228.177 12.141 228.216 12.348 228.294 12.522C228.372 12.696 228.477 12.84 228.609 12.954C228.747 13.062 228.906 13.143 229.086 13.197C229.272 13.245 229.47 13.269 229.68 13.269C229.962 13.269 230.22 13.242 230.454 13.188C230.688 13.128 230.907 13.044 231.111 12.936C231.321 12.828 231.519 12.699 231.705 12.549C231.897 12.399 232.083 12.228 232.263 12.036V10.146ZM227.088 6.42C227.592 5.934 228.135 5.571 228.717 5.331C229.299 5.091 229.944 4.971 230.652 4.971C231.162 4.971 231.615 5.055 232.011 5.223C232.407 5.391 232.74 5.625 233.01 5.925C233.28 6.225 233.484 6.588 233.622 7.014C233.76 7.44 233.829 7.908 233.829 8.418V14.25H233.118C232.962 14.25 232.842 14.226 232.758 14.178C232.674 14.124 232.608 14.022 232.56 13.872L232.38 13.008C232.14 13.23 231.906 13.428 231.678 13.602C231.45 13.77 231.21 13.914 230.958 14.034C230.706 14.148 230.436 14.235 230.148 14.295C229.866 14.361 229.551 14.394 229.203 14.394C228.849 14.394 228.516 14.346 228.204 14.25C227.892 14.148 227.619 13.998 227.385 13.8C227.157 13.602 226.974 13.353 226.836 13.053C226.704 12.747 226.638 12.387 226.638 11.973C226.638 11.613 226.737 11.268 226.935 10.938C227.133 10.602 227.454 10.305 227.898 10.047C228.342 9.789 228.921 9.579 229.635 9.417C230.349 9.249 231.225 9.153 232.263 9.129V8.418C232.263 7.71 232.11 7.176 231.804 6.816C231.498 6.45 231.051 6.267 230.463 6.267C230.067 6.267 229.734 6.318 229.464 6.42C229.2 6.516 228.969 6.627 228.771 6.753C228.579 6.873 228.411 6.984 228.267 7.086C228.129 7.182 227.991 7.23 227.853 7.23C227.745 7.23 227.652 7.203 227.574 7.149C227.496 7.089 227.43 7.017 227.376 6.933L227.088 6.42ZM236.27 14.25V5.133H237.233C237.461 5.133 237.602 5.244 237.656 5.466L237.773 6.402C238.109 5.988 238.487 5.649 238.907 5.385C239.327 5.121 239.813 4.989 240.365 4.989C240.977 4.989 241.472 5.16 241.85 5.502C242.234 5.844 242.51 6.306 242.678 6.888C242.81 6.558 242.978 6.273 243.182 6.033C243.392 5.793 243.626 5.595 243.884 5.439C244.142 5.283 244.415 5.169 244.703 5.097C244.997 5.025 245.294 4.989 245.594 4.989C246.074 4.989 246.5 5.067 246.872 5.223C247.25 5.373 247.568 5.595 247.826 5.889C248.09 6.183 248.291 6.546 248.429 6.978C248.567 7.404 248.636 7.893 248.636 8.445V14.25H247.025V8.445C247.025 7.731 246.869 7.191 246.557 6.825C246.245 6.453 245.795 6.267 245.207 6.267C244.943 6.267 244.691 6.315 244.451 6.411C244.217 6.501 244.01 6.636 243.83 6.816C243.65 6.996 243.506 7.224 243.398 7.5C243.296 7.77 243.245 8.085 243.245 8.445V14.25H241.634V8.445C241.634 7.713 241.487 7.167 241.193 6.807C240.899 6.447 240.47 6.267 239.906 6.267C239.51 6.267 239.144 6.375 238.808 6.591C238.472 6.801 238.163 7.089 237.881 7.455V14.25H236.27ZM257.173 8.697C257.173 8.325 257.119 7.986 257.011 7.68C256.909 7.368 256.756 7.101 256.552 6.879C256.354 6.651 256.111 6.477 255.823 6.357C255.535 6.231 255.208 6.168 254.842 6.168C254.074 6.168 253.465 6.393 253.015 6.843C252.571 7.287 252.295 7.905 252.187 8.697H257.173ZM258.469 12.972C258.271 13.212 258.034 13.422 257.758 13.602C257.482 13.776 257.185 13.92 256.867 14.034C256.555 14.148 256.231 14.232 255.895 14.286C255.559 14.346 255.226 14.376 254.896 14.376C254.266 14.376 253.684 14.271 253.15 14.061C252.622 13.845 252.163 13.533 251.773 13.125C251.389 12.711 251.089 12.201 250.873 11.595C250.657 10.989 250.549 10.293 250.549 9.507C250.549 8.871 250.645 8.277 250.837 7.725C251.035 7.173 251.317 6.696 251.683 6.294C252.049 5.886 252.496 5.568 253.024 5.34C253.552 5.106 254.146 4.989 254.806 4.989C255.352 4.989 255.856 5.082 256.318 5.268C256.786 5.448 257.188 5.712 257.524 6.06C257.866 6.402 258.133 6.828 258.325 7.338C258.517 7.842 258.613 8.418 258.613 9.066C258.613 9.318 258.586 9.486 258.532 9.57C258.478 9.654 258.376 9.696 258.226 9.696H252.133C252.151 10.272 252.229 10.773 252.367 11.199C252.511 11.625 252.709 11.982 252.961 12.27C253.213 12.552 253.513 12.765 253.861 12.909C254.209 13.047 254.599 13.116 255.031 13.116C255.433 13.116 255.778 13.071 256.066 12.981C256.36 12.885 256.612 12.783 256.822 12.675C257.032 12.567 257.206 12.468 257.344 12.378C257.488 12.282 257.611 12.234 257.713 12.234C257.845 12.234 257.947 12.285 258.019 12.387L258.469 12.972ZM276.742 7.806C276.742 8.772 276.589 9.651 276.283 10.443C275.977 11.235 275.545 11.913 274.987 12.477C274.429 13.041 273.757 13.479 272.971 13.791C272.191 14.097 271.327 14.25 270.379 14.25H265.564V1.353H270.379C271.327 1.353 272.191 1.509 272.971 1.821C273.757 2.127 274.429 2.565 274.987 3.135C275.545 3.699 275.977 4.377 276.283 5.169C276.589 5.961 276.742 6.84 276.742 7.806ZM274.951 7.806C274.951 7.014 274.843 6.306 274.627 5.682C274.411 5.058 274.105 4.53 273.709 4.098C273.313 3.666 272.833 3.336 272.269 3.108C271.705 2.88 271.075 2.766 270.379 2.766H267.31V12.837H270.379C271.075 12.837 271.705 12.723 272.269 12.495C272.833 12.267 273.313 11.94 273.709 11.514C274.105 11.082 274.411 10.554 274.627 9.93C274.843 9.306 274.951 8.598 274.951 7.806ZM284.858 8.697C284.858 8.325 284.804 7.986 284.696 7.68C284.594 7.368 284.441 7.101 284.237 6.879C284.039 6.651 283.796 6.477 283.508 6.357C283.22 6.231 282.893 6.168 282.527 6.168C281.759 6.168 281.15 6.393 280.7 6.843C280.256 7.287 279.98 7.905 279.872 8.697H284.858ZM286.154 12.972C285.956 13.212 285.719 13.422 285.443 13.602C285.167 13.776 284.87 13.92 284.552 14.034C284.24 14.148 283.916 14.232 283.58 14.286C283.244 14.346 282.911 14.376 282.581 14.376C281.951 14.376 281.369 14.271 280.835 14.061C280.307 13.845 279.848 13.533 279.458 13.125C279.074 12.711 278.774 12.201 278.558 11.595C278.342 10.989 278.234 10.293 278.234 9.507C278.234 8.871 278.33 8.277 278.522 7.725C278.72 7.173 279.002 6.696 279.368 6.294C279.734 5.886 280.181 5.568 280.709 5.34C281.237 5.106 281.831 4.989 282.491 4.989C283.037 4.989 283.541 5.082 284.003 5.268C284.471 5.448 284.873 5.712 285.209 6.06C285.551 6.402 285.818 6.828 286.01 7.338C286.202 7.842 286.298 8.418 286.298 9.066C286.298 9.318 286.271 9.486 286.217 9.57C286.163 9.654 286.061 9.696 285.911 9.696H279.818C279.836 10.272 279.914 10.773 280.052 11.199C280.196 11.625 280.394 11.982 280.646 12.27C280.898 12.552 281.198 12.765 281.546 12.909C281.894 13.047 282.284 13.116 282.716 13.116C283.118 13.116 283.463 13.071 283.751 12.981C284.045 12.885 284.297 12.783 284.507 12.675C284.717 12.567 284.891 12.468 285.029 12.378C285.173 12.282 285.296 12.234 285.398 12.234C285.53 12.234 285.632 12.285 285.704 12.387L286.154 12.972ZM295.884 5.133L292.167 14.25H290.727L287.01 5.133H288.315C288.447 5.133 288.555 5.166 288.639 5.232C288.723 5.298 288.78 5.376 288.81 5.466L291.123 11.334C291.195 11.556 291.258 11.772 291.312 11.982C291.366 12.192 291.417 12.402 291.465 12.612C291.513 12.402 291.564 12.192 291.618 11.982C291.672 11.772 291.738 11.556 291.816 11.334L294.156 5.466C294.192 5.37 294.252 5.292 294.336 5.232C294.42 5.166 294.519 5.133 294.633 5.133H295.884ZM303.21 8.697C303.21 8.325 303.156 7.986 303.048 7.68C302.946 7.368 302.793 7.101 302.589 6.879C302.391 6.651 302.148 6.477 301.86 6.357C301.572 6.231 301.245 6.168 300.879 6.168C300.111 6.168 299.502 6.393 299.052 6.843C298.608 7.287 298.332 7.905 298.224 8.697H303.21ZM304.506 12.972C304.308 13.212 304.071 13.422 303.795 13.602C303.519 13.776 303.222 13.92 302.904 14.034C302.592 14.148 302.268 14.232 301.932 14.286C301.596 14.346 301.263 14.376 300.933 14.376C300.303 14.376 299.721 14.271 299.187 14.061C298.659 13.845 298.2 13.533 297.81 13.125C297.426 12.711 297.126 12.201 296.91 11.595C296.694 10.989 296.586 10.293 296.586 9.507C296.586 8.871 296.682 8.277 296.874 7.725C297.072 7.173 297.354 6.696 297.72 6.294C298.086 5.886 298.533 5.568 299.061 5.34C299.589 5.106 300.183 4.989 300.843 4.989C301.389 4.989 301.893 5.082 302.355 5.268C302.823 5.448 303.225 5.712 303.561 6.06C303.903 6.402 304.17 6.828 304.362 7.338C304.554 7.842 304.65 8.418 304.65 9.066C304.65 9.318 304.623 9.486 304.569 9.57C304.515 9.654 304.413 9.696 304.263 9.696H298.17C298.188 10.272 298.266 10.773 298.404 11.199C298.548 11.625 298.746 11.982 298.998 12.27C299.25 12.552 299.55 12.765 299.898 12.909C300.246 13.047 300.636 13.116 301.068 13.116C301.47 13.116 301.815 13.071 302.103 12.981C302.397 12.885 302.649 12.783 302.859 12.675C303.069 12.567 303.243 12.468 303.381 12.378C303.525 12.282 303.648 12.234 303.75 12.234C303.882 12.234 303.984 12.285 304.056 12.387L304.506 12.972ZM308.273 0.993V14.25H306.671V0.993H308.273ZM314.714 4.989C315.38 4.989 315.98 5.1 316.514 5.322C317.048 5.544 317.504 5.859 317.882 6.267C318.26 6.675 318.548 7.17 318.746 7.752C318.95 8.328 319.052 8.973 319.052 9.687C319.052 10.407 318.95 11.055 318.746 11.631C318.548 12.207 318.26 12.699 317.882 13.107C317.504 13.515 317.048 13.83 316.514 14.052C315.98 14.268 315.38 14.376 314.714 14.376C314.042 14.376 313.436 14.268 312.896 14.052C312.362 13.83 311.906 13.515 311.528 13.107C311.15 12.699 310.859 12.207 310.655 11.631C310.457 11.055 310.358 10.407 310.358 9.687C310.358 8.973 310.457 8.328 310.655 7.752C310.859 7.17 311.15 6.675 311.528 6.267C311.906 5.859 312.362 5.544 312.896 5.322C313.436 5.1 314.042 4.989 314.714 4.989ZM314.714 13.125C315.614 13.125 316.286 12.825 316.73 12.225C317.174 11.619 317.396 10.776 317.396 9.696C317.396 8.61 317.174 7.764 316.73 7.158C316.286 6.552 315.614 6.249 314.714 6.249C314.258 6.249 313.859 6.327 313.517 6.483C313.181 6.639 312.899 6.864 312.671 7.158C312.449 7.452 312.281 7.815 312.167 8.247C312.059 8.673 312.005 9.156 312.005 9.696C312.005 10.776 312.227 11.619 312.671 12.225C313.121 12.825 313.802 13.125 314.714 13.125ZM322.695 12.054C322.989 12.45 323.31 12.729 323.658 12.891C324.006 13.053 324.396 13.134 324.828 13.134C325.68 13.134 326.334 12.831 326.79 12.225C327.246 11.619 327.474 10.755 327.474 9.633C327.474 9.039 327.42 8.529 327.312 8.103C327.21 7.677 327.06 7.329 326.862 7.059C326.664 6.783 326.421 6.582 326.133 6.456C325.845 6.33 325.518 6.267 325.152 6.267C324.63 6.267 324.171 6.387 323.775 6.627C323.385 6.867 323.025 7.206 322.695 7.644V12.054ZM322.614 6.546C322.998 6.072 323.442 5.691 323.946 5.403C324.45 5.115 325.026 4.971 325.674 4.971C326.202 4.971 326.679 5.073 327.105 5.277C327.531 5.475 327.894 5.772 328.194 6.168C328.494 6.558 328.725 7.044 328.887 7.626C329.049 8.208 329.13 8.877 329.13 9.633C329.13 10.305 329.04 10.932 328.86 11.514C328.68 12.09 328.419 12.591 328.077 13.017C327.741 13.437 327.327 13.77 326.835 14.016C326.349 14.256 325.8 14.376 325.188 14.376C324.63 14.376 324.15 14.283 323.748 14.097C323.352 13.905 323.001 13.641 322.695 13.305V17.337H321.084V5.133H322.047C322.275 5.133 322.416 5.244 322.47 5.466L322.614 6.546ZM331.174 14.25V5.133H332.137C332.365 5.133 332.506 5.244 332.56 5.466L332.677 6.402C333.013 5.988 333.391 5.649 333.811 5.385C334.231 5.121 334.717 4.989 335.269 4.989C335.881 4.989 336.376 5.16 336.754 5.502C337.138 5.844 337.414 6.306 337.582 6.888C337.714 6.558 337.882 6.273 338.086 6.033C338.296 5.793 338.53 5.595 338.788 5.439C339.046 5.283 339.319 5.169 339.607 5.097C339.901 5.025 340.198 4.989 340.498 4.989C340.978 4.989 341.404 5.067 341.776 5.223C342.154 5.373 342.472 5.595 342.73 5.889C342.994 6.183 343.195 6.546 343.333 6.978C343.471 7.404 343.54 7.893 343.54 8.445V14.25H341.929V8.445C341.929 7.731 341.773 7.191 341.461 6.825C341.149 6.453 340.699 6.267 340.111 6.267C339.847 6.267 339.595 6.315 339.355 6.411C339.121 6.501 338.914 6.636 338.734 6.816C338.554 6.996 338.41 7.224 338.302 7.5C338.2 7.77 338.149 8.085 338.149 8.445V14.25H336.538V8.445C336.538 7.713 336.391 7.167 336.097 6.807C335.803 6.447 335.374 6.267 334.81 6.267C334.414 6.267 334.048 6.375 333.712 6.591C333.376 6.801 333.067 7.089 332.785 7.455V14.25H331.174ZM352.077 8.697C352.077 8.325 352.023 7.986 351.915 7.68C351.813 7.368 351.66 7.101 351.456 6.879C351.258 6.651 351.015 6.477 350.727 6.357C350.439 6.231 350.112 6.168 349.746 6.168C348.978 6.168 348.369 6.393 347.919 6.843C347.475 7.287 347.199 7.905 347.091 8.697H352.077ZM353.373 12.972C353.175 13.212 352.938 13.422 352.662 13.602C352.386 13.776 352.089 13.92 351.771 14.034C351.459 14.148 351.135 14.232 350.799 14.286C350.463 14.346 350.13 14.376 349.8 14.376C349.17 14.376 348.588 14.271 348.054 14.061C347.526 13.845 347.067 13.533 346.677 13.125C346.293 12.711 345.993 12.201 345.777 11.595C345.561 10.989 345.453 10.293 345.453 9.507C345.453 8.871 345.549 8.277 345.741 7.725C345.939 7.173 346.221 6.696 346.587 6.294C346.953 5.886 347.4 5.568 347.928 5.34C348.456 5.106 349.05 4.989 349.71 4.989C350.256 4.989 350.76 5.082 351.222 5.268C351.69 5.448 352.092 5.712 352.428 6.06C352.77 6.402 353.037 6.828 353.229 7.338C353.421 7.842 353.517 8.418 353.517 9.066C353.517 9.318 353.49 9.486 353.436 9.57C353.382 9.654 353.28 9.696 353.13 9.696H347.037C347.055 10.272 347.133 10.773 347.271 11.199C347.415 11.625 347.613 11.982 347.865 12.27C348.117 12.552 348.417 12.765 348.765 12.909C349.113 13.047 349.503 13.116 349.935 13.116C350.337 13.116 350.682 13.071 350.97 12.981C351.264 12.885 351.516 12.783 351.726 12.675C351.936 12.567 352.11 12.468 352.248 12.378C352.392 12.282 352.515 12.234 352.617 12.234C352.749 12.234 352.851 12.285 352.923 12.387L353.373 12.972ZM356.997 6.456C357.195 6.234 357.405 6.033 357.627 5.853C357.849 5.673 358.083 5.52 358.329 5.394C358.581 5.262 358.845 5.163 359.121 5.097C359.403 5.025 359.706 4.989 360.03 4.989C360.528 4.989 360.966 5.073 361.344 5.241C361.728 5.403 362.046 5.637 362.298 5.943C362.556 6.243 362.751 6.606 362.883 7.032C363.015 7.458 363.081 7.929 363.081 8.445V14.25H361.47V8.445C361.47 7.755 361.311 7.221 360.993 6.843C360.681 6.459 360.204 6.267 359.562 6.267C359.088 6.267 358.644 6.381 358.23 6.609C357.822 6.837 357.444 7.146 357.096 7.536V14.25H355.485V5.133H356.448C356.676 5.133 356.817 5.244 356.871 5.466L356.997 6.456ZM368.198 14.394C367.478 14.394 366.923 14.193 366.533 13.791C366.149 13.389 365.957 12.81 365.957 12.054V6.474H364.859C364.763 6.474 364.682 6.447 364.616 6.393C364.55 6.333 364.517 6.243 364.517 6.123V5.484L366.011 5.295L366.38 2.478C366.398 2.388 366.437 2.316 366.497 2.262C366.563 2.202 366.647 2.172 366.749 2.172H367.559V5.313H370.196V6.474H367.559V11.946C367.559 12.33 367.652 12.615 367.838 12.801C368.024 12.987 368.264 13.08 368.558 13.08C368.726 13.08 368.87 13.059 368.99 13.017C369.116 12.969 369.224 12.918 369.314 12.864C369.404 12.81 369.479 12.762 369.539 12.72C369.605 12.672 369.662 12.648 369.71 12.648C369.794 12.648 369.869 12.699 369.935 12.801L370.403 13.566C370.127 13.824 369.794 14.028 369.404 14.178C369.014 14.322 368.612 14.394 368.198 14.394ZM219.168 32.146C218.43 32.17 217.8 32.23 217.278 32.326C216.762 32.416 216.339 32.536 216.009 32.686C215.685 32.836 215.448 33.013 215.298 33.217C215.154 33.421 215.082 33.649 215.082 33.901C215.082 34.141 215.121 34.348 215.199 34.522C215.277 34.696 215.382 34.84 215.514 34.954C215.652 35.062 215.811 35.143 215.991 35.197C216.177 35.245 216.375 35.269 216.585 35.269C216.867 35.269 217.125 35.242 217.359 35.188C217.593 35.128 217.812 35.044 218.016 34.936C218.226 34.828 218.424 34.699 218.61 34.549C218.802 34.399 218.988 34.228 219.168 34.036V32.146ZM213.993 28.42C214.497 27.934 215.04 27.571 215.622 27.331C216.204 27.091 216.849 26.971 217.557 26.971C218.067 26.971 218.52 27.055 218.916 27.223C219.312 27.391 219.645 27.625 219.915 27.925C220.185 28.225 220.389 28.588 220.527 29.014C220.665 29.44 220.734 29.908 220.734 30.418V36.25H220.023C219.867 36.25 219.747 36.226 219.663 36.178C219.579 36.124 219.513 36.022 219.465 35.872L219.285 35.008C219.045 35.23 218.811 35.428 218.583 35.602C218.355 35.77 218.115 35.914 217.863 36.034C217.611 36.148 217.341 36.235 217.053 36.295C216.771 36.361 216.456 36.394 216.108 36.394C215.754 36.394 215.421 36.346 215.109 36.25C214.797 36.148 214.524 35.998 214.29 35.8C214.062 35.602 213.879 35.353 213.741 35.053C213.609 34.747 213.543 34.387 213.543 33.973C213.543 33.613 213.642 33.268 213.84 32.938C214.038 32.602 214.359 32.305 214.803 32.047C215.247 31.789 215.826 31.579 216.54 31.417C217.254 31.249 218.13 31.153 219.168 31.129V30.418C219.168 29.71 219.015 29.176 218.709 28.816C218.403 28.45 217.956 28.267 217.368 28.267C216.972 28.267 216.639 28.318 216.369 28.42C216.105 28.516 215.874 28.627 215.676 28.753C215.484 28.873 215.316 28.984 215.172 29.086C215.034 29.182 214.896 29.23 214.758 29.23C214.65 29.23 214.557 29.203 214.479 29.149C214.401 29.089 214.335 29.017 214.281 28.933L213.993 28.42ZM224.686 28.456C224.884 28.234 225.094 28.033 225.316 27.853C225.538 27.673 225.772 27.52 226.018 27.394C226.27 27.262 226.534 27.163 226.81 27.097C227.092 27.025 227.395 26.989 227.719 26.989C228.217 26.989 228.655 27.073 229.033 27.241C229.417 27.403 229.735 27.637 229.987 27.943C230.245 28.243 230.44 28.606 230.572 29.032C230.704 29.458 230.77 29.929 230.77 30.445V36.25H229.159V30.445C229.159 29.755 229 29.221 228.682 28.843C228.37 28.459 227.893 28.267 227.251 28.267C226.777 28.267 226.333 28.381 225.919 28.609C225.511 28.837 225.133 29.146 224.785 29.536V36.25H223.174V27.133H224.137C224.365 27.133 224.506 27.244 224.56 27.466L224.686 28.456ZM239.151 29.302C238.851 28.9 238.527 28.621 238.179 28.465C237.831 28.303 237.441 28.222 237.009 28.222C236.163 28.222 235.512 28.525 235.056 29.131C234.6 29.737 234.372 30.601 234.372 31.723C234.372 32.317 234.423 32.827 234.525 33.253C234.627 33.673 234.777 34.021 234.975 34.297C235.173 34.567 235.416 34.765 235.704 34.891C235.992 35.017 236.319 35.08 236.685 35.08C237.213 35.08 237.672 34.96 238.062 34.72C238.458 34.48 238.821 34.141 239.151 33.703V29.302ZM240.753 22.993V36.25H239.799C239.571 36.25 239.427 36.139 239.367 35.917L239.223 34.81C238.833 35.278 238.389 35.656 237.891 35.944C237.393 36.232 236.817 36.376 236.163 36.376C235.641 36.376 235.167 36.277 234.741 36.079C234.315 35.875 233.952 35.578 233.652 35.188C233.352 34.798 233.121 34.312 232.959 33.73C232.797 33.148 232.716 32.479 232.716 31.723C232.716 31.051 232.806 30.427 232.986 29.851C233.166 29.269 233.424 28.765 233.76 28.339C234.096 27.913 234.507 27.58 234.993 27.34C235.485 27.094 236.037 26.971 236.649 26.971C237.207 26.971 237.684 27.067 238.08 27.259C238.482 27.445 238.839 27.706 239.151 28.042V22.993H240.753ZM254.518 31.462L252.493 26.215C252.433 26.059 252.37 25.879 252.304 25.675C252.238 25.465 252.175 25.243 252.115 25.009C251.989 25.495 251.86 25.9 251.728 26.224L249.703 31.462H254.518ZM258.154 36.25H256.804C256.648 36.25 256.522 36.211 256.426 36.133C256.33 36.055 256.258 35.956 256.21 35.836L255.004 32.722H249.217L248.011 35.836C247.975 35.944 247.906 36.04 247.804 36.124C247.702 36.208 247.576 36.25 247.426 36.25H246.076L251.233 23.353H252.997L258.154 36.25ZM260.959 28.96C261.247 28.336 261.601 27.85 262.021 27.502C262.441 27.148 262.954 26.971 263.56 26.971C263.752 26.971 263.935 26.992 264.109 27.034C264.289 27.076 264.448 27.142 264.586 27.232L264.469 28.429C264.433 28.579 264.343 28.654 264.199 28.654C264.115 28.654 263.992 28.636 263.83 28.6C263.668 28.564 263.485 28.546 263.281 28.546C262.993 28.546 262.735 28.588 262.507 28.672C262.285 28.756 262.084 28.882 261.904 29.05C261.73 29.212 261.571 29.416 261.427 29.662C261.289 29.902 261.163 30.178 261.049 30.49V36.25H259.438V27.133H260.356C260.53 27.133 260.65 27.166 260.716 27.232C260.782 27.298 260.827 27.412 260.851 27.574L260.959 28.96ZM268.793 36.394C268.073 36.394 267.518 36.193 267.128 35.791C266.744 35.389 266.552 34.81 266.552 34.054V28.474H265.454C265.358 28.474 265.277 28.447 265.211 28.393C265.145 28.333 265.112 28.243 265.112 28.123V27.484L266.606 27.295L266.975 24.478C266.993 24.388 267.032 24.316 267.092 24.262C267.158 24.202 267.242 24.172 267.344 24.172H268.154V27.313H270.791V28.474H268.154V33.946C268.154 34.33 268.247 34.615 268.433 34.801C268.619 34.987 268.859 35.08 269.153 35.08C269.321 35.08 269.465 35.059 269.585 35.017C269.711 34.969 269.819 34.918 269.909 34.864C269.999 34.81 270.074 34.762 270.134 34.72C270.2 34.672 270.257 34.648 270.305 34.648C270.389 34.648 270.464 34.699 270.53 34.801L270.998 35.566C270.722 35.824 270.389 36.028 269.999 36.178C269.609 36.322 269.207 36.394 268.793 36.394ZM289.345 29.806C289.345 30.772 289.192 31.66 288.886 32.47C288.58 33.274 288.148 33.967 287.59 34.549C287.032 35.131 286.36 35.584 285.574 35.908C284.794 36.226 283.93 36.385 282.982 36.385C282.034 36.385 281.17 36.226 280.39 35.908C279.61 35.584 278.941 35.131 278.383 34.549C277.825 33.967 277.393 33.274 277.087 32.47C276.781 31.66 276.628 30.772 276.628 29.806C276.628 28.84 276.781 27.955 277.087 27.151C277.393 26.341 277.825 25.645 278.383 25.063C278.941 24.475 279.61 24.019 280.39 23.695C281.17 23.371 282.034 23.209 282.982 23.209C283.93 23.209 284.794 23.371 285.574 23.695C286.36 24.019 287.032 24.475 287.59 25.063C288.148 25.645 288.58 26.341 288.886 27.151C289.192 27.955 289.345 28.84 289.345 29.806ZM287.554 29.806C287.554 29.014 287.446 28.303 287.23 27.673C287.014 27.043 286.708 26.512 286.312 26.08C285.916 25.642 285.436 25.306 284.872 25.072C284.308 24.838 283.678 24.721 282.982 24.721C282.292 24.721 281.665 24.838 281.101 25.072C280.537 25.306 280.054 25.642 279.652 26.08C279.256 26.512 278.95 27.043 278.734 27.673C278.518 28.303 278.41 29.014 278.41 29.806C278.41 30.598 278.518 31.309 278.734 31.939C278.95 32.563 279.256 33.094 279.652 33.532C280.054 33.964 280.537 34.297 281.101 34.531C281.665 34.759 282.292 34.873 282.982 34.873C283.678 34.873 284.308 34.759 284.872 34.531C285.436 34.297 285.916 33.964 286.312 33.532C286.708 33.094 287.014 32.563 287.23 31.939C287.446 31.309 287.554 30.598 287.554 29.806ZM298.821 27.133V36.25H297.867C297.639 36.25 297.495 36.139 297.435 35.917L297.309 34.936C296.913 35.374 296.469 35.728 295.977 35.998C295.485 36.262 294.921 36.394 294.285 36.394C293.787 36.394 293.346 36.313 292.962 36.151C292.584 35.983 292.266 35.749 292.008 35.449C291.75 35.149 291.555 34.786 291.423 34.36C291.297 33.934 291.234 33.463 291.234 32.947V27.133H292.836V32.947C292.836 33.637 292.992 34.171 293.304 34.549C293.622 34.927 294.105 35.116 294.753 35.116C295.227 35.116 295.668 35.005 296.076 34.783C296.49 34.555 296.871 34.243 297.219 33.847V27.133H298.821ZM304.161 36.394C303.441 36.394 302.886 36.193 302.496 35.791C302.112 35.389 301.92 34.81 301.92 34.054V28.474H300.822C300.726 28.474 300.645 28.447 300.579 28.393C300.513 28.333 300.48 28.243 300.48 28.123V27.484L301.974 27.295L302.343 24.478C302.361 24.388 302.4 24.316 302.46 24.262C302.526 24.202 302.61 24.172 302.712 24.172H303.522V27.313H306.159V28.474H303.522V33.946C303.522 34.33 303.615 34.615 303.801 34.801C303.987 34.987 304.227 35.08 304.521 35.08C304.689 35.08 304.833 35.059 304.953 35.017C305.079 34.969 305.187 34.918 305.277 34.864C305.367 34.81 305.442 34.762 305.502 34.72C305.568 34.672 305.625 34.648 305.673 34.648C305.757 34.648 305.832 34.699 305.898 34.801L306.366 35.566C306.09 35.824 305.757 36.028 305.367 36.178C304.977 36.322 304.575 36.394 304.161 36.394ZM313.123 28.636C313.051 28.768 312.94 28.834 312.79 28.834C312.7 28.834 312.598 28.801 312.484 28.735C312.37 28.669 312.229 28.597 312.061 28.519C311.899 28.435 311.704 28.36 311.476 28.294C311.248 28.222 310.978 28.186 310.666 28.186C310.396 28.186 310.153 28.222 309.937 28.294C309.721 28.36 309.535 28.453 309.379 28.573C309.229 28.693 309.112 28.834 309.028 28.996C308.95 29.152 308.911 29.323 308.911 29.509C308.911 29.743 308.977 29.938 309.109 30.094C309.247 30.25 309.427 30.385 309.649 30.499C309.871 30.613 310.123 30.715 310.405 30.805C310.687 30.889 310.975 30.982 311.269 31.084C311.569 31.18 311.86 31.288 312.142 31.408C312.424 31.528 312.676 31.678 312.898 31.858C313.12 32.038 313.297 32.26 313.429 32.524C313.567 32.782 313.636 33.094 313.636 33.46C313.636 33.88 313.561 34.27 313.411 34.63C313.261 34.984 313.039 35.293 312.745 35.557C312.451 35.815 312.091 36.019 311.665 36.169C311.239 36.319 310.747 36.394 310.189 36.394C309.553 36.394 308.977 36.292 308.461 36.088C307.945 35.878 307.507 35.611 307.147 35.287L307.525 34.675C307.573 34.597 307.63 34.537 307.696 34.495C307.762 34.453 307.846 34.432 307.948 34.432C308.056 34.432 308.17 34.474 308.29 34.558C308.41 34.642 308.554 34.735 308.722 34.837C308.896 34.939 309.106 35.032 309.352 35.116C309.598 35.2 309.904 35.242 310.27 35.242C310.582 35.242 310.855 35.203 311.089 35.125C311.323 35.041 311.518 34.93 311.674 34.792C311.83 34.654 311.944 34.495 312.016 34.315C312.094 34.135 312.133 33.943 312.133 33.739C312.133 33.487 312.064 33.28 311.926 33.118C311.794 32.95 311.617 32.809 311.395 32.695C311.173 32.575 310.918 32.473 310.63 32.389C310.348 32.299 310.057 32.206 309.757 32.11C309.463 32.014 309.172 31.906 308.884 31.786C308.602 31.66 308.35 31.504 308.128 31.318C307.906 31.132 307.726 30.904 307.588 30.634C307.456 30.358 307.39 30.025 307.39 29.635C307.39 29.287 307.462 28.954 307.606 28.636C307.75 28.312 307.96 28.03 308.236 27.79C308.512 27.544 308.851 27.349 309.253 27.205C309.655 27.061 310.114 26.989 310.63 26.989C311.23 26.989 311.767 27.085 312.241 27.277C312.721 27.463 313.135 27.721 313.483 28.051L313.123 28.636ZM319.443 26.989C320.109 26.989 320.709 27.1 321.243 27.322C321.777 27.544 322.233 27.859 322.611 28.267C322.989 28.675 323.277 29.17 323.475 29.752C323.679 30.328 323.781 30.973 323.781 31.687C323.781 32.407 323.679 33.055 323.475 33.631C323.277 34.207 322.989 34.699 322.611 35.107C322.233 35.515 321.777 35.83 321.243 36.052C320.709 36.268 320.109 36.376 319.443 36.376C318.771 36.376 318.165 36.268 317.625 36.052C317.091 35.83 316.635 35.515 316.257 35.107C315.879 34.699 315.588 34.207 315.384 33.631C315.186 33.055 315.087 32.407 315.087 31.687C315.087 30.973 315.186 30.328 315.384 29.752C315.588 29.17 315.879 28.675 316.257 28.267C316.635 27.859 317.091 27.544 317.625 27.322C318.165 27.1 318.771 26.989 319.443 26.989ZM319.443 35.125C320.343 35.125 321.015 34.825 321.459 34.225C321.903 33.619 322.125 32.776 322.125 31.696C322.125 30.61 321.903 29.764 321.459 29.158C321.015 28.552 320.343 28.249 319.443 28.249C318.987 28.249 318.588 28.327 318.246 28.483C317.91 28.639 317.628 28.864 317.4 29.158C317.178 29.452 317.01 29.815 316.896 30.247C316.788 30.673 316.734 31.156 316.734 31.696C316.734 32.776 316.956 33.619 317.4 34.225C317.85 34.825 318.531 35.125 319.443 35.125ZM333.31 27.133V36.25H332.356C332.128 36.25 331.984 36.139 331.924 35.917L331.798 34.936C331.402 35.374 330.958 35.728 330.466 35.998C329.974 36.262 329.41 36.394 328.774 36.394C328.276 36.394 327.835 36.313 327.451 36.151C327.073 35.983 326.755 35.749 326.497 35.449C326.239 35.149 326.044 34.786 325.912 34.36C325.786 33.934 325.723 33.463 325.723 32.947V27.133H327.325V32.947C327.325 33.637 327.481 34.171 327.793 34.549C328.111 34.927 328.594 35.116 329.242 35.116C329.716 35.116 330.157 35.005 330.565 34.783C330.979 34.555 331.36 34.243 331.708 33.847V27.133H333.31ZM337.371 28.96C337.659 28.336 338.013 27.85 338.433 27.502C338.853 27.148 339.366 26.971 339.972 26.971C340.164 26.971 340.347 26.992 340.521 27.034C340.701 27.076 340.86 27.142 340.998 27.232L340.881 28.429C340.845 28.579 340.755 28.654 340.611 28.654C340.527 28.654 340.404 28.636 340.242 28.6C340.08 28.564 339.897 28.546 339.693 28.546C339.405 28.546 339.147 28.588 338.919 28.672C338.697 28.756 338.496 28.882 338.316 29.05C338.142 29.212 337.983 29.416 337.839 29.662C337.701 29.902 337.575 30.178 337.461 30.49V36.25H335.85V27.133H336.768C336.942 27.133 337.062 27.166 337.128 27.232C337.194 27.298 337.239 27.412 337.263 27.574L337.371 28.96ZM348.382 28.753C348.334 28.819 348.286 28.87 348.238 28.906C348.19 28.942 348.124 28.96 348.04 28.96C347.95 28.96 347.851 28.924 347.743 28.852C347.635 28.774 347.5 28.69 347.338 28.6C347.182 28.51 346.987 28.429 346.753 28.357C346.525 28.279 346.243 28.24 345.907 28.24C345.457 28.24 345.061 28.321 344.719 28.483C344.377 28.639 344.089 28.867 343.855 29.167C343.627 29.467 343.453 29.83 343.333 30.256C343.219 30.682 343.162 31.159 343.162 31.687C343.162 32.239 343.225 32.731 343.351 33.163C343.477 33.589 343.654 33.949 343.882 34.243C344.116 34.531 344.395 34.753 344.719 34.909C345.049 35.059 345.418 35.134 345.826 35.134C346.216 35.134 346.537 35.089 346.789 34.999C347.041 34.903 347.248 34.798 347.41 34.684C347.578 34.57 347.716 34.468 347.824 34.378C347.938 34.282 348.049 34.234 348.157 34.234C348.289 34.234 348.391 34.285 348.463 34.387L348.913 34.972C348.715 35.218 348.49 35.428 348.238 35.602C347.986 35.776 347.713 35.923 347.419 36.043C347.131 36.157 346.828 36.241 346.51 36.295C346.192 36.349 345.868 36.376 345.538 36.376C344.968 36.376 344.437 36.271 343.945 36.061C343.459 35.851 343.036 35.548 342.676 35.152C342.316 34.75 342.034 34.258 341.83 33.676C341.626 33.094 341.524 32.431 341.524 31.687C341.524 31.009 341.617 30.382 341.803 29.806C341.995 29.23 342.271 28.735 342.631 28.321C342.997 27.901 343.444 27.574 343.972 27.34C344.506 27.106 345.118 26.989 345.808 26.989C346.45 26.989 347.014 27.094 347.5 27.304C347.992 27.508 348.427 27.799 348.805 28.177L348.382 28.753ZM352.325 27.133V36.25H350.723V27.133H352.325ZM352.667 24.271C352.667 24.427 352.634 24.574 352.568 24.712C352.508 24.844 352.424 24.964 352.316 25.072C352.214 25.174 352.091 25.255 351.947 25.315C351.809 25.375 351.662 25.405 351.506 25.405C351.35 25.405 351.203 25.375 351.065 25.315C350.933 25.255 350.816 25.174 350.714 25.072C350.612 24.964 350.531 24.844 350.471 24.712C350.411 24.574 350.381 24.427 350.381 24.271C350.381 24.115 350.411 23.968 350.471 23.83C350.531 23.686 350.612 23.563 350.714 23.461C350.816 23.353 350.933 23.269 351.065 23.209C351.203 23.149 351.35 23.119 351.506 23.119C351.662 23.119 351.809 23.149 351.947 23.209C352.091 23.269 352.214 23.353 352.316 23.461C352.424 23.563 352.508 23.686 352.568 23.83C352.634 23.968 352.667 24.115 352.667 24.271ZM356.469 28.456C356.667 28.234 356.877 28.033 357.099 27.853C357.321 27.673 357.555 27.52 357.801 27.394C358.053 27.262 358.317 27.163 358.593 27.097C358.875 27.025 359.178 26.989 359.502 26.989C360 26.989 360.438 27.073 360.816 27.241C361.2 27.403 361.518 27.637 361.77 27.943C362.028 28.243 362.223 28.606 362.355 29.032C362.487 29.458 362.553 29.929 362.553 30.445V36.25H360.942V30.445C360.942 29.755 360.783 29.221 360.465 28.843C360.153 28.459 359.676 28.267 359.034 28.267C358.56 28.267 358.116 28.381 357.702 28.609C357.294 28.837 356.916 29.146 356.568 29.536V36.25H354.957V27.133H355.92C356.148 27.133 356.289 27.244 356.343 27.466L356.469 28.456ZM368.171 31.795C368.495 31.795 368.78 31.75 369.026 31.66C369.272 31.57 369.479 31.444 369.647 31.282C369.815 31.12 369.941 30.928 370.025 30.706C370.109 30.478 370.151 30.229 370.151 29.959C370.151 29.401 369.98 28.957 369.638 28.627C369.302 28.297 368.813 28.132 368.171 28.132C367.523 28.132 367.028 28.297 366.686 28.627C366.35 28.957 366.182 29.401 366.182 29.959C366.182 30.229 366.224 30.478 366.308 30.706C366.398 30.928 366.527 31.12 366.695 31.282C366.863 31.444 367.07 31.57 367.316 31.66C367.562 31.75 367.847 31.795 368.171 31.795ZM371.06 36.745C371.06 36.523 370.997 36.343 370.871 36.205C370.745 36.067 370.574 35.959 370.358 35.881C370.148 35.803 369.902 35.749 369.62 35.719C369.338 35.683 369.038 35.656 368.72 35.638C368.408 35.62 368.09 35.602 367.766 35.584C367.442 35.566 367.13 35.536 366.83 35.494C366.494 35.65 366.218 35.848 366.002 36.088C365.792 36.322 365.687 36.598 365.687 36.916C365.687 37.12 365.738 37.309 365.84 37.483C365.948 37.663 366.11 37.816 366.326 37.942C366.542 38.074 366.812 38.176 367.136 38.248C367.466 38.326 367.853 38.365 368.297 38.365C368.729 38.365 369.116 38.326 369.458 38.248C369.8 38.17 370.088 38.059 370.322 37.915C370.562 37.771 370.745 37.6 370.871 37.402C370.997 37.204 371.06 36.985 371.06 36.745ZM372.689 27.493V28.087C372.689 28.285 372.563 28.411 372.311 28.465L371.276 28.6C371.48 28.996 371.582 29.434 371.582 29.914C371.582 30.358 371.495 30.763 371.321 31.129C371.153 31.489 370.919 31.798 370.619 32.056C370.319 32.314 369.959 32.512 369.539 32.65C369.119 32.788 368.663 32.857 368.171 32.857C367.745 32.857 367.343 32.806 366.965 32.704C366.773 32.824 366.626 32.953 366.524 33.091C366.422 33.223 366.371 33.358 366.371 33.496C366.371 33.712 366.458 33.877 366.632 33.991C366.812 34.099 367.046 34.177 367.334 34.225C367.622 34.273 367.949 34.303 368.315 34.315C368.687 34.327 369.065 34.348 369.449 34.378C369.839 34.402 370.217 34.447 370.583 34.513C370.955 34.579 371.285 34.687 371.573 34.837C371.861 34.987 372.092 35.194 372.266 35.458C372.446 35.722 372.536 36.064 372.536 36.484C372.536 36.874 372.437 37.252 372.239 37.618C372.047 37.984 371.768 38.308 371.402 38.59C371.036 38.878 370.586 39.106 370.052 39.274C369.524 39.448 368.927 39.535 368.261 39.535C367.595 39.535 367.013 39.469 366.515 39.337C366.017 39.205 365.603 39.028 365.273 38.806C364.943 38.584 364.694 38.326 364.526 38.032C364.364 37.744 364.283 37.441 364.283 37.123C364.283 36.673 364.424 36.292 364.706 35.98C364.988 35.668 365.375 35.419 365.867 35.233C365.597 35.113 365.381 34.954 365.219 34.756C365.063 34.552 364.985 34.279 364.985 33.937C364.985 33.805 365.009 33.67 365.057 33.532C365.105 33.388 365.177 33.247 365.273 33.109C365.375 32.965 365.498 32.83 365.642 32.704C365.786 32.578 365.954 32.467 366.146 32.371C365.696 32.119 365.345 31.786 365.093 31.372C364.841 30.952 364.715 30.466 364.715 29.914C364.715 29.47 364.799 29.068 364.967 28.708C365.141 28.342 365.381 28.033 365.687 27.781C365.993 27.523 366.356 27.325 366.776 27.187C367.202 27.049 367.667 26.98 368.171 26.98C368.567 26.98 368.936 27.025 369.278 27.115C369.62 27.199 369.932 27.325 370.214 27.493H372.689Z" fill="white"></path> <path d="M6.82407 1.52277H13.4796L20.3037 36.1798H14.5327L13.1848 28.1788H7.24531L5.85522 36.1798H0L6.82407 1.52277ZM12.5108 24.1568L10.194 9.60942L7.87717 24.1568H12.5108Z" fill="white"></path> <path d="M23.7352 1.52277H31.9493C35.5439 1.52277 38.2258 2.22162 39.995 3.61931C41.7642 4.98848 42.6488 7.356 42.6488 10.7219C42.6488 12.9182 42.3258 14.7153 41.6799 16.113C41.0621 17.4821 39.9809 18.4805 38.4364 19.108L43.1964 36.1798H36.9621L32.876 20.306H29.9274V36.1798H23.7352V1.52277ZM31.9072 16.3697C33.6764 16.3697 34.9261 15.9561 35.6562 15.1289C36.4144 14.3017 36.7936 12.9468 36.7936 11.0642C36.7936 9.23861 36.4566 7.91222 35.7826 7.08502C35.1367 6.25781 33.9572 5.84421 32.2442 5.84421H29.9274V16.3697H31.9072Z" fill="white"></path> <path d="M55.7342 36.6505C52.5047 36.6505 50.1738 35.6379 48.7416 33.6126C47.3375 31.5589 46.6354 28.6066 46.6354 24.7558V13.1179C46.6354 9.15303 47.3656 6.17224 48.8259 4.17554C50.2861 2.15031 52.7995 1.1377 56.366 1.1377C59.7359 1.1377 62.151 1.99343 63.6113 3.70488C65.0716 5.38782 65.8018 7.89796 65.8018 11.2353V13.0323H59.8623V11.0642C59.8623 9.80909 59.7781 8.81074 59.6096 8.06911C59.4692 7.32748 59.1462 6.75699 58.6407 6.35765C58.1633 5.95831 57.4332 5.75864 56.4503 5.75864C55.4112 5.75864 54.639 6.01536 54.1335 6.52879C53.628 7.04223 53.291 7.69829 53.1225 8.49697C52.9821 9.29565 52.9119 10.3368 52.9119 11.6204V26.125C52.9119 28.0932 53.1646 29.5622 53.6701 30.532C54.2037 31.5018 55.1866 31.9868 56.6188 31.9868C58.0229 31.9868 58.9917 31.4733 59.5253 30.4464C60.087 29.4196 60.3678 27.8793 60.3678 25.8255V22.5737H56.703V18.5946H65.9703V36.1798H61.9264L61.5051 32.7997C60.438 35.3669 58.5143 36.6505 55.7342 36.6505Z" fill="white"></path> <path d="M70.7132 1.52277H85.0353V5.97257H76.9054V15.9418H83.3082V20.3488H76.9054V31.8584H85.1195V36.1798H70.7132V1.52277Z" fill="white"></path> <path d="M88.731 1.52277H93.0697L101.368 21.2901V1.52277H106.507V36.1798H102.379L94.0386 15.4712V36.1798H88.731V1.52277Z" fill="white"></path> <path d="M115.097 6.1865H109.663V1.52277H126.639V6.1865H121.332V36.1798H115.097V6.1865Z" fill="white"></path> <path d="M129.913 1.52277H136.063V36.1798H129.913V1.52277Z" fill="white"></path> <path d="M150.528 36.6505C146.989 36.6505 144.476 35.6521 142.988 33.6554C141.527 31.6302 140.797 28.7778 140.797 25.0981V12.7328C140.797 8.9391 141.527 6.05814 142.988 4.08996C144.448 2.12178 146.961 1.1377 150.528 1.1377C153.87 1.1377 156.243 1.99343 157.647 3.70488C159.051 5.41634 159.753 7.8837 159.753 11.1069V14.0164H153.771V11.0214C153.771 9.79483 153.715 8.83926 153.603 8.15468C153.49 7.44157 153.196 6.87109 152.718 6.44322C152.269 5.98683 151.553 5.75864 150.57 5.75864C149.559 5.75864 148.801 6.00109 148.295 6.48601C147.79 6.9424 147.453 7.56993 147.284 8.36861C147.144 9.13877 147.074 10.1514 147.074 11.4065V26.4245C147.074 28.3927 147.326 29.8189 147.832 30.7032C148.337 31.5589 149.25 31.9868 150.57 31.9868C151.525 31.9868 152.227 31.7586 152.676 31.3022C153.153 30.8458 153.448 30.2468 153.561 29.5051C153.701 28.735 153.771 27.7224 153.771 26.4673V23.3439H159.753V26.125C159.753 29.4624 159.065 32.0581 157.689 33.9121C156.313 35.7377 153.926 36.6505 150.528 36.6505Z" fill="white"></path> <path d="M172.687 36.6505C169.597 36.6505 167.281 35.7662 165.736 33.9977C164.22 32.2292 163.391 29.5907 163.251 26.0822L168.601 25.0126C168.685 27.2089 169.022 28.8919 169.611 30.0614C170.229 31.2023 171.184 31.7728 172.476 31.7728C173.431 31.7728 174.133 31.4876 174.582 30.9171C175.059 30.3181 175.298 29.5194 175.298 28.521C175.298 27.1519 174.989 25.9966 174.371 25.0553C173.782 24.0855 172.841 23.0301 171.549 21.8891L167.253 18.0811C165.933 16.9402 164.936 15.7136 164.262 14.4015C163.616 13.0894 163.293 11.5206 163.293 9.69499C163.293 6.98518 164.065 4.88865 165.61 3.40538C167.182 1.89359 169.345 1.1377 172.097 1.1377C175.045 1.1377 177.152 1.99343 178.415 3.70488C179.707 5.38782 180.451 7.66977 180.648 10.5507L175.298 11.492C175.214 9.60942 174.947 8.19747 174.498 7.25616C174.077 6.28634 173.234 5.80142 171.97 5.80142C171.072 5.80142 170.37 6.11519 169.864 6.74273C169.359 7.34174 169.106 8.11189 169.106 9.0532C169.106 10.1656 169.317 11.1069 169.738 11.8771C170.187 12.6187 170.903 13.4174 171.886 14.2731L176.141 18.0811C177.741 19.4788 178.991 20.9764 179.89 22.5737C180.788 24.1711 181.238 26.0252 181.238 28.136C181.238 29.7904 180.873 31.2594 180.142 32.543C179.44 33.8266 178.443 34.8392 177.152 35.5808C175.86 36.2939 174.371 36.6505 172.687 36.6505Z" fill="white"></path> <path opacity="0.5" d="M197.636 1L197.636 36.6659" stroke="white"></path> </svg> 