<?xml version="1.0" encoding="UTF-8"?>
<svg xmlns="http://www.w3.org/2000/svg" width="80" height="80" viewBox="0 0 80 80" fill="none">
  <g clip-path="url(#clip0_2125_228)">
    <path d="M80 0H0V80H80V0Z" fill="white"></path>
    <path d="M52.4072 41.5078H52.2898V46.4918C52.2898 47.3374 52.0786 47.9439 51.7101 48.3371C51.3439 48.7303 50.8064 48.9317 50.1187 48.9317C49.4309 48.9317 48.9005 48.7303 48.532 48.3371C48.1635 47.9415 47.9475 47.3351 47.9475 46.4918V41.5078H46.7434V46.4136C46.7434 47.5554 47.0509 48.4531 47.6353 49.069C48.2198 49.6849 49.0695 50 50.1163 50C51.1632 50 52.0246 49.6849 52.6067 49.0714C53.1888 48.4579 53.4892 47.5648 53.4892 46.4349V41.5078H52.4025H52.4072Z" fill="#0E0E0E" stroke="black" stroke-width="0.1"></path>
    <path d="M16.5633 38.4922H16.6807V35.2067H18.6406L20.6897 38.4377L20.7249 38.4922H22.098L21.9806 38.3098L19.8611 35.0124C20.7882 34.7424 21.6497 33.9772 21.6497 32.6649C21.6497 31.8571 21.3821 31.2199 20.8704 30.7841C20.3611 30.3529 19.6217 30.135 18.7039 30.135H15.4883V38.4899H16.5633V38.4922ZM16.6807 31.1915H18.6476C19.2391 31.1915 19.6851 31.3289 19.9808 31.5753C20.2719 31.8192 20.4338 32.1817 20.4338 32.6625C20.4338 33.1434 20.2719 33.5272 19.9808 33.7688C19.6851 34.0128 19.2414 34.1478 18.6476 34.1478H16.6807V31.1891V31.1915Z" fill="#0E0E0E" stroke="black" stroke-width="0.1"></path>
    <path d="M63.533 34.2283C64.2066 33.8588 64.6408 33.2145 64.6408 32.3593C64.6408 31.625 64.3381 31.0304 63.8334 30.623C63.3311 30.2179 62.6387 30.0023 61.8641 30.0023C61.0895 30.0023 60.4042 30.2179 59.9042 30.623C59.4019 31.0304 59.0991 31.625 59.0991 32.3593C59.0991 33.2168 59.5427 33.8588 60.2093 34.2283C59.4301 34.5055 58.74 35.254 58.74 36.1566C58.74 36.8933 59.0522 37.5163 59.6038 37.9521C60.153 38.3856 60.9323 38.6296 61.8641 38.6296C62.7959 38.6296 63.5893 38.3856 64.1385 37.9521C64.6901 37.5163 65 36.8933 65 36.1566C65 35.254 64.3099 34.5079 63.5306 34.2283H63.533ZM63.3006 37.2059C62.9743 37.4594 62.4908 37.6086 61.8665 37.6086C61.2421 37.6086 60.7703 37.4594 60.4441 37.2059C60.1225 36.9572 59.9441 36.5995 59.9441 36.1566C59.9441 35.7136 60.1201 35.3725 60.4441 35.1309C60.7703 34.8845 61.2515 34.74 61.8665 34.74C62.4814 34.74 62.9767 34.8845 63.3029 35.1309C63.6245 35.3725 63.8005 35.7207 63.8005 36.1566C63.8005 36.5924 63.6245 36.9549 63.3029 37.2059H63.3006ZM60.6975 31.3502C60.9909 31.1275 61.4041 31.0115 61.8641 31.0115C62.3242 31.0115 62.7467 31.1275 63.0424 31.3502C63.3335 31.5705 63.5165 31.9021 63.5165 32.3593C63.5165 32.8165 63.3335 33.1576 63.0424 33.3779C62.7467 33.603 62.3312 33.7167 61.8641 33.7167C61.397 33.7167 60.9909 33.6006 60.6975 33.3779C60.4088 33.1576 60.2234 32.8213 60.2234 32.3593C60.2234 31.8974 60.4065 31.5705 60.6975 31.3502Z" fill="#0E0E0E" stroke="black" stroke-width="0.1"></path>
    <path d="M32.5383 49.7441L32.6369 49.6802L30.5174 46.3828C31.4445 46.1127 32.3059 45.3476 32.3059 44.0353C32.3059 43.2275 32.0383 42.5903 31.5267 42.1544C31.0173 41.7233 30.2779 41.5054 29.3602 41.5054H26.1445V49.8602H27.3369V46.5747H29.2968L31.3459 49.8057L31.3811 49.8602H32.7542L32.6369 49.6778L32.5383 49.7418V49.7441ZM27.3369 42.5619H29.3039C29.8954 42.5619 30.3413 42.6993 30.6371 42.9456C30.9281 43.1896 31.0901 43.552 31.0901 44.0329C31.0901 44.5138 30.9281 44.8975 30.6371 45.1391C30.3413 45.3831 29.8977 45.5182 29.3039 45.5182H27.3369V42.5595V42.5619Z" fill="#0E0E0E"></path>
    <path d="M31.3459 49.8057L29.2968 46.5747H27.3369V49.8602H26.1445V41.5054H29.3602C30.2779 41.5054 31.0173 41.7233 31.5267 42.1544C32.0383 42.5903 32.3059 43.2275 32.3059 44.0353C32.3059 45.3476 31.4445 46.1127 30.5174 46.3828L32.6369 49.6802L32.5383 49.7441V49.7418L32.6369 49.6778L32.7542 49.8602H31.3811L31.3459 49.8057ZM31.3459 49.8057L31.4445 49.7418M27.3369 42.5619H29.3039C29.8954 42.5619 30.3413 42.6993 30.6371 42.9456C30.9281 43.1896 31.0901 43.552 31.0901 44.0329C31.0901 44.5138 30.9281 44.8975 30.6371 45.1391C30.3413 45.3831 29.8977 45.5182 29.3039 45.5182H27.3369V42.5595V42.5619Z" stroke="black" stroke-width="0.1"></path>
    <path d="M39.5283 30C38.3805 30 37.4322 30.4548 36.7726 31.2271C36.1154 31.9969 35.7493 33.0747 35.7493 34.316C35.7493 35.5573 36.1131 36.6398 36.7726 37.4073C37.4322 38.1772 38.3805 38.6296 39.5283 38.6296C40.676 38.6296 41.6243 38.1772 42.2839 37.4073C42.9411 36.6374 43.3072 35.5596 43.3072 34.316C43.3072 33.0724 42.9434 31.9993 42.2839 31.2271C41.6243 30.4548 40.676 30 39.5283 30ZM39.5283 37.5613C38.6786 37.5613 38.0472 37.2273 37.6247 36.6635C37.1975 36.095 36.9769 35.2825 36.9769 34.3136C36.9769 33.3448 37.1998 32.5394 37.6247 31.9685C38.0472 31.4023 38.6786 31.066 39.5283 31.066C40.3779 31.066 41.0023 31.4023 41.4224 31.9685C41.8473 32.5394 42.0703 33.3519 42.0703 34.3136C42.0703 35.2754 41.8473 36.095 41.4224 36.6635C40.9999 37.2273 40.3709 37.5613 39.5283 37.5613Z" fill="#0E0E0E" stroke="black" stroke-width="0.1"></path>
    <path d="M39.4623 41.3704C38.3146 41.3704 37.3663 41.8252 36.7067 42.5974C36.0495 43.3673 35.6833 44.4451 35.6833 45.6864C35.6833 46.9277 36.0472 48.0102 36.7067 48.7777C37.3663 49.5476 38.3146 50 39.4623 50C40.6101 50 41.5584 49.5476 42.2179 48.7777C42.8752 48.0078 43.2413 46.93 43.2413 45.6864C43.2413 44.4428 42.8775 43.3697 42.2179 42.5974C41.5584 41.8252 40.6101 41.3704 39.4623 41.3704ZM39.4623 48.9317C38.6127 48.9317 37.9813 48.5977 37.5588 48.0339C37.1316 47.4654 36.9109 46.6529 36.9109 45.684C36.9109 44.7152 37.1339 43.9098 37.5588 43.3389C37.9813 42.7727 38.6127 42.4364 39.4623 42.4364C40.312 42.4364 40.9364 42.7727 41.3565 43.3389C41.7814 43.9098 42.0044 44.7223 42.0044 45.684C42.0044 46.6458 41.7814 47.4654 41.3565 48.0339C40.934 48.5977 40.305 48.9317 39.4623 48.9317Z" fill="#0E0E0E" stroke="black" stroke-width="0.1"></path>
    <path d="M28.8039 38.6296C29.9517 38.6296 30.8999 38.1772 31.5595 37.4073C32.2167 36.6374 32.5829 35.5596 32.5829 34.316C32.5829 33.0724 32.2191 31.9993 31.5595 31.2271C30.8999 30.4548 29.9517 30 28.8039 30C27.6561 30 26.7078 30.4548 26.0483 31.2271C25.3911 31.9969 25.0249 33.0747 25.0249 34.316C25.0249 35.5573 25.3887 36.6398 26.0483 37.4073C26.7078 38.1772 27.6561 38.6296 28.8039 38.6296ZM28.8039 31.0683C29.6465 31.0683 30.2756 31.4047 30.6981 31.9709C31.1229 32.5418 31.3459 33.3543 31.3459 34.316C31.3459 35.2777 31.1229 36.0974 30.6981 36.6659C30.2756 37.2297 29.6465 37.5637 28.8039 37.5637C27.9612 37.5637 27.3228 37.2297 26.898 36.6659C26.4708 36.0974 26.2501 35.2848 26.2501 34.316C26.2501 33.3472 26.4731 32.5418 26.898 31.9709C27.3205 31.4047 27.9519 31.0683 28.8039 31.0683Z" fill="#0E0E0E" stroke="black" stroke-width="0.1"></path>
    <path d="M19.2555 45.5774H19.1381V46.5865H21.0417V46.8897C21.0417 47.5175 20.8046 48.0244 20.4103 48.375C20.016 48.7279 19.455 48.9317 18.8048 48.9317C17.988 48.9317 17.3495 48.6095 16.913 48.0481C16.474 47.4843 16.2299 46.6671 16.2299 45.6745C16.2299 44.682 16.4787 43.8719 16.9247 43.3128C17.3683 42.7561 18.0161 42.4387 18.8377 42.4387C19.4315 42.4387 19.8939 42.5974 20.2319 42.8698C20.5699 43.1423 20.7952 43.5331 20.8962 44.0164L20.9149 44.1111H22.1214L22.0956 43.9713C21.95 43.1991 21.6003 42.5453 21.0487 42.0881C20.4971 41.6309 19.7531 41.3727 18.8353 41.3727C17.7392 41.3727 16.7792 41.7944 16.0914 42.5477C15.4061 43.301 15 44.3764 15 45.6745C15 46.9726 15.3943 48.0599 16.068 48.8156C16.744 49.5736 17.6946 50 18.7907 50C19.347 50 19.9056 49.8413 20.3657 49.5665C20.6873 49.3746 20.9642 49.1235 21.159 48.8274L21.2201 49.7513L21.2271 49.8626H22.22V45.5774H19.2531H19.2555Z" fill="#0E0E0E"></path>
    <path d="M20.8962 44.0164C20.7952 43.5331 20.5699 43.1423 20.2319 42.8698C19.8939 42.5974 19.4315 42.4387 18.8377 42.4387C18.0161 42.4387 17.3683 42.7561 16.9247 43.3128C16.4787 43.8719 16.2299 44.682 16.2299 45.6745C16.2299 46.6671 16.474 47.4843 16.913 48.0481C17.3495 48.6095 17.988 48.9317 18.8048 48.9317C19.455 48.9317 20.016 48.7279 20.4103 48.375C20.8046 48.0244 21.0417 47.5175 21.0417 46.8897V46.5865H19.1381V45.5774H19.2555H19.2531H22.22V49.8626H21.2271L21.2201 49.7513L21.159 48.8274C20.9642 49.1235 20.6873 49.3746 20.3657 49.5665C19.9056 49.8413 19.347 50 18.7907 50C17.6946 50 16.744 49.5736 16.068 48.8156C15.3943 48.0599 15 46.9726 15 45.6745C15 44.3764 15.4061 43.301 16.0914 42.5477C16.7792 41.7944 17.7392 41.3727 18.8353 41.3727C19.7531 41.3727 20.4971 41.6309 21.0487 42.0881C21.6003 42.5453 21.95 43.1991 22.0956 43.9713M20.8962 44.0164L21.0112 43.9927M20.8962 44.0164L20.9149 44.1111H22.1214L22.0956 43.9713M22.0956 43.9713L21.9806 43.9927" stroke="black" stroke-width="0.1"></path>
    <path d="M53.5317 30.1374H53.4495L53.4213 30.2155L51.0413 36.7867L48.6612 30.2155L48.6331 30.1374H46.936V38.4922H48.0956V31.8548L50.5038 38.4141L50.5319 38.4922H51.4826L51.5107 38.4141L53.9189 31.8524V38.4899H55.0878V30.135H53.5293L53.5317 30.1374Z" fill="#0E0E0E"></path>
    <path d="M53.4213 30.2155L53.4495 30.1374H53.5317L53.5293 30.135H55.0878V38.4899H53.9189V31.8524L51.5107 38.4141L51.4826 38.4922H50.5319L50.5038 38.4141M53.4213 30.2155L53.5317 30.2558M53.4213 30.2155L51.0413 36.7867L48.6612 30.2155L48.6331 30.1374H46.936V38.4922H48.0956V31.8548L50.5038 38.4141M50.5038 38.4141L50.6141 38.3738" stroke="black" stroke-width="0.1"></path>
    <path d="M62.7489 42.1497C62.2372 41.7186 61.5002 41.5078 60.5871 41.5078H57.4958V49.8626H58.6882V46.5984H60.5988C61.5049 46.5984 62.2395 46.3875 62.7512 45.9564C63.2653 45.5205 63.5328 44.8762 63.5328 44.0471C63.5328 43.218 63.2629 42.5808 62.7489 42.1473V42.1497ZM58.6882 42.5642H60.566C61.1622 42.5642 61.6011 42.6874 61.8898 42.9243C62.1738 43.1588 62.3311 43.5213 62.3311 44.0471C62.3311 44.573 62.1738 44.9402 61.8898 45.1771C61.6011 45.4187 61.1622 45.5442 60.5683 45.5442H58.6906V42.5642H58.6882Z" fill="#0E0E0E" stroke="black" stroke-width="0.1"></path>
  </g>
  <defs>
    <clipPath id="clip0_2125_228">
      <rect width="80" height="80" fill="white"></rect>
    </clipPath>
  </defs>
</svg>
