<svg width="100" height="38" viewBox="0 0 100 38" fill="none" xmlns="http://www.w3.org/2000/svg">
<path d="M20.3775 7.98123C20.9166 7.79937 23 7.51017 23 4.41845C23 -0.125219 18.7693 0.0238513 18.1083 0.0208699C14.5142 0.00596282 7 0 7 0L7.00914 17H11.6907L11.6815 10.4379H18.1967L18.2058 16.997L22.866 16.994C22.866 16.994 22.933 12.7634 22.7563 10.9358C22.6375 9.71642 21.8822 8.35391 20.3775 7.98123ZM18.1936 6.91687H11.6785V3.57769H18.1936V6.91687Z" fill="white"/>
<path d="M78.7072 0H77.488C75.5787 0 74.007 1.42263 73.7739 3.26579C73.5378 1.42263 71.9661 0 70.0568 0H69.2918C67.3825 0 65.8108 1.42263 65.5777 3.26579V0H61V17H65.5777V3.74298H69.2291V17H73.8068V3.74298H77.4223V17H82V3.28667C82 1.47035 80.5269 0 78.7072 0Z" fill="white"/>
<path d="M36.474 0H29.526C27.0257 0 25 2.08735 25 4.66374V12.3363C25 14.9126 27.0257 17 29.526 17H36.474C38.9743 17 41 14.9126 41 12.3363V4.66374C41 2.08735 38.9743 0 36.474 0ZM36.4683 13.2398H29.5317V3.76022H36.4654V13.2398H36.4683Z" fill="white"/>
<path d="M54.474 0H47.526C45.0257 0 43 2.08735 43 4.66374V12.3363C43 14.9126 45.0257 17 47.526 17H54.474C56.9743 17 59 14.9126 59 12.3363V4.66374C59 2.08735 56.9743 0 54.474 0ZM54.4683 13.2398H47.5346V3.76022H54.4683V13.2398Z" fill="white"/>
<path d="M97.6298 7.79316C98.8061 7.09228 99.5981 5.80386 99.5981 4.32456V4.02632C99.5981 1.8014 97.8101 0 95.6084 0H88.3857C86.181 0 84.396 1.80439 84.396 4.02632V4.32456C84.396 5.80386 85.188 7.09228 86.3642 7.79316C84.9487 8.65211 84 10.2089 84 11.9984V12.0939C84 14.8049 86.1781 17 88.8615 17H95.1385C97.8249 17 100 14.8019 100 12.0939V11.9984C99.9941 10.2119 99.0454 8.65211 97.6298 7.79316ZM88.8851 3.74298H95.106V6.67175H88.8851V3.74298ZM95.372 13.2391H88.6191V10.2H95.372V13.2391Z" fill="white"/>
<path d="M67.2227 24.3723C67.6124 24.5573 67.8721 24.984 67.8721 25.4554C67.8721 26.237 67.3142 26.7741 66.3017 26.7741H64.2295V22.0869H66.2486C67.1902 22.0869 67.7304 22.5911 67.7304 23.2744C67.7304 23.7279 67.5622 24.0411 67.2227 24.2261V24.3723ZM64.814 22.612V24.0769H66.2368C66.8419 24.0769 67.1401 23.8263 67.1401 23.3281C67.1401 22.8358 66.7504 22.612 66.225 22.612H64.814ZM66.2634 26.249C66.8596 26.249 67.2818 26.0073 67.2818 25.4076C67.2818 24.8378 66.8714 24.5931 66.2693 24.5931H64.814V26.246H66.2634V26.249Z" fill="white"/>
<path d="M70.1069 24.2202H70.2899L71.5297 22.0869H72.1584L70.4906 24.981V26.7741H69.9061V24.981L68.2354 22.0869H68.8641L70.1069 24.2202Z" fill="white"/>
<path d="M76.7381 22.0869C77.7063 22.0869 78.2642 22.5911 78.2642 23.4534C78.2642 24.0382 78.031 24.438 77.5558 24.6558L78.2967 26.7771H77.6916L76.9979 24.796C76.8739 24.8079 76.7499 24.8169 76.62 24.8169H75.2681V26.7801H74.6836V22.0869H76.7381ZM76.6555 24.2858C77.3374 24.2858 77.6739 24.0113 77.6739 23.4534C77.6739 22.9014 77.3757 22.612 76.6555 22.612H75.271V24.2858H76.6555Z" fill="white"/>
<path d="M82.8095 22.6892C83.1932 23.1427 83.3821 23.7275 83.3821 24.4286C83.3821 25.1298 83.1932 25.7145 82.8095 26.174C82.4257 26.6275 81.9003 26.8572 81.2184 26.8572C80.5365 26.8572 80.0052 26.6275 79.6214 26.174C79.2436 25.7145 79.0576 25.1298 79.0576 24.4286C79.0576 23.7275 79.2465 23.1427 79.6214 22.6892C80.0052 22.2297 80.5365 22 81.2184 22C81.9003 22 82.4257 22.2297 82.8095 22.6892ZM81.2184 26.3202C81.7379 26.3202 82.1276 26.1442 82.3933 25.7832C82.6589 25.4221 82.7888 24.9686 82.7888 24.4316C82.7888 23.8946 82.6589 23.447 82.3933 23.086C82.1276 22.725 81.7379 22.54 81.2184 22.54C80.6989 22.54 80.3092 22.725 80.0436 23.086C79.7779 23.447 79.648 23.8946 79.648 24.4316C79.648 24.9686 79.7779 25.4221 80.0436 25.7832C80.3092 26.1442 80.6989 26.3202 81.2184 26.3202Z" fill="white"/>
<path d="M87.8485 22.6892C88.2323 23.1427 88.4212 23.7275 88.4212 24.4286C88.4212 25.1298 88.2323 25.7145 87.8485 26.174C87.4648 26.6275 86.9394 26.8572 86.2575 26.8572C85.5756 26.8572 85.0442 26.6275 84.6605 26.174C84.2826 25.7145 84.0967 25.1298 84.0967 24.4286C84.0967 23.7275 84.2856 23.1427 84.6605 22.6892C85.0442 22.2297 85.5756 22 86.2575 22C86.9394 22 87.4648 22.2297 87.8485 22.6892ZM86.2575 26.3202C86.777 26.3202 87.1666 26.1442 87.4323 25.7832C87.698 25.4221 87.8279 24.9686 87.8279 24.4316C87.8279 23.8946 87.698 23.447 87.4323 23.086C87.1666 22.725 86.777 22.54 86.2575 22.54C85.7379 22.54 85.3483 22.725 85.0826 23.086C84.8169 23.447 84.6871 23.8946 84.6871 24.4316C84.6871 24.9686 84.8169 25.4221 85.0826 25.7832C85.3483 26.1442 85.7379 26.3202 86.2575 26.3202Z" fill="white"/>
<path d="M89.3691 26.7741V22.0869H90.3433L91.5122 24.2858H91.6539L92.8022 22.0869H93.7822V26.7741H93.2096V22.7552H93.0679L91.8783 24.981H91.2672L90.0776 22.7552H89.9359V26.7741H89.3691Z" fill="white"/>
<path d="M97.2919 24.4229C97.466 24.4886 97.6284 24.6198 97.7789 24.8108C97.9295 25.0017 98.0003 25.2374 98.0003 25.5209C98.0003 25.9087 97.8498 26.222 97.5457 26.4786C97.2476 26.7352 96.852 26.8605 96.3561 26.8605C95.8602 26.8605 95.4676 26.7352 95.1606 26.4786C94.8625 26.222 94.7119 25.9087 94.7119 25.5209C94.7119 24.963 95.0573 24.5572 95.4204 24.4259V24.2827C95.1281 24.1455 94.8477 23.7964 94.8477 23.319C94.8477 22.958 94.9894 22.6626 95.2698 22.4329C95.5503 22.2032 95.9133 22.0928 96.3532 22.0928C96.793 22.0928 97.159 22.2032 97.4365 22.4329C97.7169 22.6626 97.8586 22.958 97.8586 23.319C97.8586 23.7904 97.5723 24.1455 97.286 24.2827V24.4229H97.2919ZM96.3561 26.3473C96.6867 26.3473 96.9465 26.2698 97.1413 26.1116C97.3362 25.9475 97.4336 25.7387 97.4336 25.4672C97.4336 25.1987 97.3362 24.9868 97.1413 24.8376C96.9524 24.6795 96.6867 24.6019 96.3561 24.6019C96.0255 24.6019 95.7598 24.6795 95.565 24.8376C95.3761 24.9898 95.2787 25.1987 95.2787 25.4672C95.2787 25.7357 95.3761 25.9475 95.5709 26.1116C95.7657 26.2698 96.0255 26.3473 96.3561 26.3473ZM96.3561 22.5851C96.0905 22.5851 95.8632 22.6507 95.6801 22.7879C95.4971 22.9192 95.4086 23.1042 95.4086 23.3399C95.4086 23.5756 95.5001 23.7606 95.6801 23.8978C95.8632 24.0351 96.0905 24.1007 96.3561 24.1007C96.6218 24.1007 96.8491 24.0351 97.0321 23.8978C97.2151 23.7606 97.3037 23.5756 97.3037 23.3399C97.3037 23.1042 97.2122 22.9192 97.0321 22.7879C96.8491 22.6507 96.6218 22.5851 96.3561 22.5851Z" fill="white"/>
<path d="M66.0634 31.4282H68.0972V31.8996C68.0972 32.4576 67.9556 32.9498 67.6486 33.3496C67.3563 33.7494 66.825 34.0001 66.149 34.0001C65.4671 34.0001 64.9417 33.7703 64.5638 33.3168C64.186 32.8633 64 32.2785 64 31.5714C64 30.8554 64.1889 30.2796 64.5727 29.8261C64.9564 29.3726 65.4819 29.1428 66.1637 29.1428C67.1172 29.1428 67.7755 29.6351 67.9555 30.4496H67.3445C67.1881 29.9364 66.7925 29.6828 66.1637 29.6828C65.6501 29.6828 65.2546 29.8589 64.9889 30.2199C64.7232 30.5809 64.5933 31.0284 64.5933 31.5714C64.5668 32.5769 65.0804 33.4541 66.1578 33.463C66.6065 33.463 66.943 33.3317 67.1644 33.0632C67.3917 32.7947 67.501 32.4516 67.501 32.0399V31.9533H66.0663V31.4282H66.0634Z" fill="white"/>
<path d="M71.1141 29.2292C72.0823 29.2292 72.6402 29.7335 72.6402 30.5957C72.6402 31.1805 72.407 31.5803 71.9318 31.7981L72.6727 33.9194H72.0676L71.3739 31.9383C71.2499 31.9502 71.1259 31.9592 70.996 31.9592H69.644V33.9224H69.0596V29.2292H71.1141ZM71.0285 31.4281C71.7104 31.4281 72.0469 31.1536 72.0469 30.5957C72.0469 30.0438 71.7487 29.7544 71.0285 29.7544H69.644V31.4281H71.0285Z" fill="white"/>
<path d="M77.1855 29.832C77.5692 30.2855 77.7581 30.8703 77.7581 31.5714C77.7581 32.2726 77.5692 32.8574 77.1855 33.3168C76.8017 33.7703 76.2763 34.0001 75.5944 34.0001C74.9125 34.0001 74.3812 33.7703 73.9974 33.3168C73.6196 32.8574 73.4336 32.2726 73.4336 31.5714C73.4336 30.8703 73.6225 30.2855 73.9974 29.832C74.3812 29.3726 74.9125 29.1428 75.5944 29.1428C76.2763 29.1428 76.8017 29.3726 77.1855 29.832ZM75.5944 33.463C76.1139 33.463 76.5036 33.287 76.7692 32.926C77.0349 32.565 77.1648 32.1115 77.1648 31.5744C77.1648 31.0374 77.0349 30.5898 76.7692 30.2288C76.5036 29.8678 76.1139 29.6828 75.5944 29.6828C75.0748 29.6828 74.6852 29.8678 74.4195 30.2288C74.1539 30.5898 74.024 31.0374 74.024 31.5744C74.024 32.1115 74.1539 32.565 74.4195 32.926C74.6852 33.284 75.0748 33.463 75.5944 33.463Z" fill="white"/>
<path d="M81.7594 29.2295H82.3439V32.24C82.3439 33.3498 81.6885 34.0003 80.5196 34.0003C79.3506 34.0003 78.6953 33.3498 78.6953 32.24V29.2266H79.2798V32.234C79.2798 32.9888 79.7226 33.4602 80.5196 33.4602C81.3166 33.4602 81.7594 32.9888 81.7594 32.234V29.2295Z" fill="white"/>
<path d="M85.4718 29.2292C86.4666 29.2292 87.0422 29.7544 87.0422 30.6285C87.0422 31.5147 86.4636 32.0398 85.4718 32.0398H84.0933V33.9164H83.5088V29.2292H85.4718ZM85.3744 31.5117C86.0946 31.5117 86.4518 31.2163 86.4518 30.6315C86.4518 30.0467 86.0946 29.7514 85.3744 29.7514H84.0962V31.5117H85.3744Z" fill="white"/>
<path d="M17.5475 24.2722C18.0675 24.3519 18.2986 24.7356 18.2047 25.3003C18.0819 26.0605 17.0925 26.198 16.5004 26.3573C15.6554 26.589 14.7816 26.5962 13.9439 26.8134C13.0484 27.0451 11.0624 27.284 10.1886 27.5663C10.398 27.8197 11.2574 27.7473 11.568 27.7908C12.0807 27.8704 13.6984 27.9862 14.2111 28.0586C15.4532 28.2324 16.6304 28.5292 17.8364 28.8478C18.5369 29.036 19.9162 29.188 19.6707 30.274C19.5407 30.8459 19.028 30.8604 18.5658 30.8894C17.9664 30.9256 17.3959 31.0414 16.8181 31.1573C9.56032 32.3735 4.64235 34.7771 3.63131 35.255C2.02809 35.9862 1.54424 36.7753 1.11816 36.978C0.619868 37.2169 -0.268402 35.4432 0.078239 35.0522C0.706526 34.3427 3.96351 32.9165 6.72942 32.0405C7.27827 31.8667 9.65421 31.1355 10.8602 30.7591C11.4235 30.5853 14.24 29.9627 14.5938 29.6007C13.8644 29.3039 12.0301 29.4704 11.2646 29.4052C10.2175 29.3111 9.17035 29.1953 8.11598 29.1736C6.64276 29.1374 5.83392 27.1537 6.86662 26.951C7.35048 26.8568 7.82711 26.741 8.30374 26.6179C9.20646 26.379 10.1019 26.0967 10.9974 25.8215C12.6945 25.3003 14.4205 24.7645 16.1609 24.417C16.3126 24.3881 17.3742 24.2433 17.5475 24.2722Z" fill="white"/>
<path d="M30.4454 22.5416C30.8426 22.4475 31.0159 22.3823 31.312 22.6864C31.6081 22.9905 31.7887 23.4538 31.4637 23.7579C31.182 24.0257 30.7993 23.9606 30.4743 23.9316C29.9471 23.8882 29.4705 23.9895 28.9433 24.0837C27.9973 24.2574 26.8924 24.4963 26.5096 24.7714C26.1269 25.3868 25.708 26.6683 25.3758 27.5153C24.9642 28.5578 24.5742 29.6076 24.2203 30.6718C23.8954 31.642 23.6065 32.6193 23.4115 33.6184C23.3032 34.1831 22.9204 35.3198 22.0538 34.965C21.3678 34.6827 21.2161 33.3071 21.3822 32.7135C21.6855 31.613 22.0755 30.5343 22.4583 29.4628C22.7832 28.5434 23.1515 27.6311 23.361 26.6755C23.4548 26.2701 23.7509 25.7198 23.5126 25.7198C23.1226 25.7198 22.126 26.3425 21.7866 26.5162C20.985 26.9216 20.6745 27.1026 19.9162 27.5949C19.6707 27.7615 19.3024 28.0728 18.9774 28.0728C18.6091 28.0728 18.1686 27.6673 17.988 27.3705C17.4608 26.5017 18.2841 26.0891 18.9702 25.785C20.0173 25.3217 20.5951 25.1262 21.6855 24.7642C22.5305 24.4818 24.0326 24.0764 24.4803 23.7217C24.7764 23.2149 25.0147 22.3461 25.2242 21.7959C25.3975 21.347 25.5347 20.6665 25.8958 20.319C26.7335 19.4937 27.4268 20.4348 27.6723 21.2746C27.8384 21.8393 27.6073 22.1144 27.4051 22.614C27.174 23.1859 26.9935 23.1642 27.5784 23.1642C28.0189 23.1642 29.8821 22.6719 30.4454 22.5416Z" fill="white"/>
<path d="M39.9702 24.9381C41.5807 24.8947 43.0033 25.2132 44.5704 25.4883C45.011 25.568 45.7114 25.6331 46.0509 25.9806C46.3253 26.2558 46.4481 27.1462 46.3759 27.5155C46.2459 28.1453 45.4226 28.5146 44.946 28.8331C44.3177 29.2603 43.6894 29.6874 43.0611 30.1146C41.7612 30.9978 40.483 32.0114 39.0892 32.7353C38.5981 32.9887 37.6593 33.6982 37.1032 33.662C36.9877 33.6186 36.8938 33.5534 36.8143 33.4521C36.6844 33.3869 36.5544 33.3724 36.4172 33.4014C36.0055 33.3218 35.9839 33.2856 35.8105 32.8946C35.4567 32.1055 36.1788 30.1652 36.7421 28.8766C36.9227 28.4711 37.7459 27.2114 37.5799 26.7915C37.4282 26.4078 36.901 26.3571 36.7638 25.8938C36.4027 24.6847 39.3058 24.9381 39.9702 24.9381C41.0463 24.9092 39.4142 24.9381 39.9702 24.9381ZM40.3241 26.5091C39.8836 26.6684 39.6236 26.958 39.4358 27.3852C38.9953 28.3625 38.1215 29.9336 37.9626 30.9906C39.0459 30.9471 40.3746 29.4775 41.2629 28.8766C42.2378 28.2177 43.1983 27.5662 44.101 26.8132C42.4256 26.473 40.9813 26.2702 40.3241 26.5091Z" fill="white"/>
<path d="M29.8387 26.7113C29.586 27.2977 28.6399 28.905 28.8855 29.2525C29.1815 29.6796 30.9292 27.8914 31.2397 27.609C31.998 26.9068 32.6913 25.7846 33.5795 25.2634C34.4895 24.7204 35.2116 25.9222 35.1683 26.7547C35.1394 27.2688 34.8361 27.7249 34.6411 28.1882C34.4317 28.6805 34.2584 29.1873 34.114 29.7086C33.9479 30.2733 33.8179 30.8452 33.7023 31.4171C33.6445 31.6778 33.5434 32.0108 33.529 32.2787C33.5218 32.4162 33.6373 32.5972 33.5868 32.7275C33.464 33.0099 32.6841 33.285 32.4169 33.2416C31.9619 33.1619 31.803 32.6624 31.6297 32.2642C31.1747 31.2362 31.8969 29.933 32.0052 28.8615C31.3264 29.1077 30.727 30.0488 30.2287 30.5701C29.5354 31.3013 28.8421 32.0398 28.1561 32.771C27.6361 33.3284 27.2317 33.8931 26.5312 33.2271C25.8885 32.6117 26.1051 32.0325 26.264 31.2579C26.4373 30.3963 26.5023 29.5348 26.7623 28.695C27.015 27.8769 27.3183 27.0661 27.6289 26.2697C27.8816 25.6109 28.1777 24.7638 29.0588 24.981C29.7593 25.1548 29.8026 25.8498 29.8676 26.4579C29.8748 26.5665 29.882 26.6027 29.8387 26.7113Z" fill="white"/>
<path d="M58.9499 28.2896C58.6899 29.3031 57.9171 30.0561 57.2094 30.8018C56.4367 31.6126 55.4184 32.3004 54.4579 32.8579C53.6708 33.314 52.3997 33.5312 51.8292 32.6913C51.1287 31.6561 51.0999 30.4904 51.3743 29.3176C51.6126 28.304 52.0314 27.3412 52.6958 26.5375C53.028 26.1321 53.5047 25.5602 54.0463 25.4733C54.2702 25.4371 54.5446 25.6036 54.7396 25.5385C54.9273 25.4805 54.9851 25.2344 55.079 25.0968C55.7001 24.1846 56.6822 24.1991 57.5127 24.8362C58.4949 25.5819 58.7837 26.6968 58.986 27.8479C59.0148 27.9783 59.0004 28.0941 58.9499 28.2896ZM54.003 28.4271C53.8008 28.7891 52.3925 31.3737 53.7358 31.0407C54.1619 30.9321 54.8913 30.476 55.209 30.2009C55.6423 29.8244 55.9745 29.2525 56.3139 28.7891C56.6172 28.3764 57.8233 26.371 56.6245 26.3493C55.6351 26.4796 54.8985 26.7909 54.003 28.4271Z" fill="white"/>
<path d="M46.9978 32.7787C46.5501 32.3733 46.1601 31.6927 46.2323 31.0774C46.3262 30.2882 46.9834 29.3181 47.3083 28.5941C47.6767 27.7833 48.8755 24.0765 50.2692 25.3C51.5042 26.386 50.002 28.1308 49.4893 29.1226C49.0704 29.9335 48.731 30.7588 48.4133 31.6059C48.3266 31.8375 48.2544 32.2068 48.1099 32.4022C47.9077 32.6701 47.5178 32.728 47.2 32.8149C47.1567 32.8221 47.0267 32.8077 46.9978 32.7787Z" fill="white"/>
<path d="M52.2329 23.1422C52.0596 23.7649 51.8574 24.3296 51.0775 24.1124C50.5286 23.9603 50.1892 23.3377 50.1386 22.7947C50.0158 21.3106 52.2762 21.8753 52.2329 23.1422C52.2546 22.5703 52.1824 23.3305 52.2329 23.1422Z" fill="white"/>
</svg>
