<svg width="141" height="48" viewBox="0 0 141 48" fill="none" xmlns="http://www.w3.org/2000/svg">
<g clip-path="url(#clip0_541_1471)">
<path d="M64.2653 21.1756L60.477 6.68595L60.4556 6.60034C60.4556 6.47192 60.5338 6.40771 60.691 6.40771H63.3449C63.4874 6.40771 63.5804 6.47927 63.6232 6.62174L65.6564 15.3327C65.6705 15.3898 65.6919 15.4183 65.7206 15.4183C65.7491 15.4183 65.7705 15.3898 65.7848 15.3327L67.7539 6.64314C67.7967 6.4863 67.8893 6.40771 68.0321 6.40771H70.6219C70.7787 6.40771 70.8787 6.47927 70.9215 6.62174L73.0618 15.3327C73.0758 15.3755 73.0972 15.4004 73.126 15.4074C73.1544 15.4148 73.1758 15.3898 73.1902 15.3327L75.1592 6.64314C75.202 6.4863 75.2947 6.40771 75.4375 6.40771H77.963C78.1627 6.40771 78.2412 6.50067 78.1984 6.68595L74.6884 21.1756C74.6456 21.3184 74.5456 21.3896 74.3887 21.3896H71.8418C71.699 21.3896 71.6064 21.3184 71.5636 21.1756L69.3805 11.9082C69.3661 11.8514 69.3447 11.8226 69.3163 11.8226C69.2875 11.8226 69.2661 11.8514 69.2521 11.9082L67.2188 21.1542C67.1901 21.3114 67.0974 21.3896 66.9406 21.3896H64.5649C64.4077 21.3896 64.3081 21.3184 64.2653 21.1756Z" fill="#9A80FF"/>
<path d="M88.5888 6.4823C88.6386 6.43246 88.6993 6.40723 88.7709 6.40723H91.275C91.3463 6.40723 91.4066 6.43246 91.4571 6.4823C91.5069 6.53245 91.5319 6.59282 91.5319 6.66406V21.1323C91.5319 21.2039 91.5066 21.2646 91.4571 21.3141C91.4069 21.3642 91.3463 21.3891 91.275 21.3891H88.7709C88.6993 21.3891 88.6386 21.3645 88.5888 21.3141C88.5387 21.2642 88.5141 21.2039 88.5141 21.1323V15.2255C88.5141 15.1542 88.4783 15.1185 88.4071 15.1185H83.677C83.6055 15.1185 83.57 15.1542 83.57 15.2255V21.1326C83.57 21.2042 83.5448 21.2649 83.4953 21.3144C83.4451 21.3645 83.3848 21.3895 83.3132 21.3895H80.8091C80.7375 21.3895 80.6768 21.3649 80.627 21.3144C80.5768 21.2646 80.5522 21.2042 80.5522 21.1326V6.66438C80.5522 6.59314 80.5768 6.53277 80.627 6.48262C80.6768 6.43278 80.7375 6.40755 80.8091 6.40755H83.3132C83.3844 6.40755 83.4448 6.43278 83.4953 6.48262C83.5451 6.53277 83.57 6.59314 83.57 6.66438V12.4217C83.57 12.4933 83.6055 12.5287 83.677 12.5287H88.4071C88.4783 12.5287 88.5141 12.4933 88.5141 12.4217V6.66438C88.5141 6.59314 88.5387 6.53245 88.5888 6.4823Z" fill="#9A80FF"/>
<path d="M94.6036 21.3146C94.5534 21.2647 94.5288 21.2043 94.5288 21.1328V6.66455C94.5288 6.59331 94.5534 6.53294 94.6036 6.48278C94.6534 6.43295 94.7141 6.40771 94.7856 6.40771H97.2898C97.361 6.40771 97.4214 6.43295 97.4718 6.48278C97.5217 6.53294 97.5466 6.59331 97.5466 6.66455V21.1328C97.5466 21.2043 97.5214 21.265 97.4718 21.3146C97.4217 21.3647 97.3613 21.3896 97.2898 21.3896H94.7856C94.7141 21.3896 94.6534 21.3647 94.6036 21.3146Z" fill="#9A80FF"/>
<path d="M110.623 6.40771H113.127C113.198 6.40771 113.258 6.43295 113.309 6.48278C113.359 6.53294 113.384 6.59331 113.384 6.66455V21.1328C113.384 21.2043 113.358 21.265 113.309 21.3146C113.259 21.3647 113.198 21.3896 113.127 21.3896H110.623C110.551 21.3896 110.491 21.365 110.441 21.3146C110.391 21.2647 110.366 21.2043 110.366 21.1328V11.6942C110.366 11.6373 110.352 11.6086 110.323 11.6086C110.294 11.6086 110.266 11.63 110.238 11.6728L107.969 15.2256C107.897 15.34 107.798 15.3969 107.669 15.3969H106.406C106.278 15.3969 106.178 15.34 106.107 15.2256L103.838 11.6728C103.809 11.63 103.781 11.6124 103.752 11.6194C103.724 11.6268 103.71 11.6591 103.71 11.7159V21.1331C103.71 21.2047 103.684 21.2654 103.635 21.3149C103.585 21.365 103.524 21.3899 103.453 21.3899H100.949C100.877 21.3899 100.816 21.3653 100.767 21.3149C100.716 21.265 100.692 21.2047 100.692 21.1331V6.66455C100.692 6.59331 100.716 6.53294 100.767 6.48278C100.816 6.43295 100.877 6.40771 100.949 6.40771H103.453C103.581 6.40771 103.681 6.4649 103.752 6.57894L106.963 11.5658C107.006 11.6514 107.048 11.6514 107.091 11.5658L110.323 6.57894C110.394 6.4649 110.494 6.40771 110.623 6.40771Z" fill="#9A80FF"/>
<path d="M118.67 21.0148C117.814 20.651 117.154 20.1303 116.69 19.4524C116.226 18.7749 115.995 17.9862 115.995 17.0873V16.6164C115.995 16.5452 116.019 16.4848 116.069 16.4346C116.119 16.3848 116.18 16.3596 116.251 16.3596H118.691C118.763 16.3596 118.823 16.3848 118.873 16.4346C118.923 16.4848 118.948 16.5455 118.948 16.6164V16.9374C118.948 17.5083 119.212 17.9897 119.74 18.3823C120.268 18.7749 120.981 18.9707 121.88 18.9707C122.637 18.9707 123.2 18.8103 123.571 18.489C123.942 18.1679 124.128 17.7722 124.128 17.301C124.128 16.9585 124.013 16.6698 123.785 16.4343C123.557 16.1989 123.246 15.9922 122.854 15.8136C122.462 15.6354 121.838 15.3894 120.982 15.0754C120.026 14.7473 119.216 14.4119 118.552 14.0695C117.889 13.727 117.332 13.26 116.883 12.6678C116.434 12.0758 116.209 11.3446 116.209 10.4738C116.209 9.61772 116.43 8.86862 116.872 8.22654C117.315 7.58446 117.928 7.09219 118.713 6.74975C119.498 6.40731 120.404 6.23608 121.431 6.23608C122.515 6.23608 123.482 6.42871 124.331 6.81396C125.18 7.19921 125.844 7.73811 126.322 8.4297C126.8 9.12194 127.039 9.9247 127.039 10.8374V11.1584C127.039 11.2299 127.014 11.2903 126.964 11.3402C126.914 11.3903 126.854 11.4149 126.782 11.4149H124.321C124.249 11.4149 124.189 11.3903 124.139 11.3402C124.089 11.2903 124.064 11.2299 124.064 11.1584V10.9872C124.064 10.3879 123.818 9.87806 123.326 9.45703C122.833 9.03633 122.159 8.82549 121.303 8.82549C120.632 8.82549 120.108 8.96829 119.73 9.25355C119.352 9.53913 119.163 9.93141 119.163 10.4307C119.163 10.7875 119.273 11.0872 119.494 11.3296C119.716 11.5724 120.044 11.7896 120.479 11.9826C120.914 12.1752 121.588 12.4358 122.501 12.7639C123.514 13.1351 124.31 13.4632 124.888 13.7484C125.466 14.034 125.987 14.4586 126.45 15.0217C126.914 15.5856 127.146 16.3168 127.146 17.2157C127.146 18.557 126.654 19.6166 125.669 20.3941C124.685 21.172 123.35 21.5608 121.667 21.5608C120.525 21.5608 119.526 21.3787 118.67 21.0148Z" fill="#9A80FF"/>
<path d="M133.063 21.2932C133.013 21.2433 132.988 21.1829 132.988 21.1114V15.6965C132.988 15.6396 132.981 15.5968 132.967 15.5681L128.558 6.70735C128.529 6.65049 128.515 6.60769 128.515 6.57894C128.515 6.4649 128.593 6.40771 128.751 6.40771H131.447C131.59 6.40771 131.69 6.47192 131.747 6.60034L134.422 12.2935C134.465 12.3791 134.508 12.3791 134.551 12.2935L137.226 6.60034C137.283 6.47192 137.383 6.40771 137.526 6.40771H140.265C140.365 6.40771 140.433 6.43295 140.469 6.48278C140.504 6.53294 140.501 6.60801 140.458 6.70735L136.006 15.5681C135.992 15.5968 135.985 15.6396 135.985 15.6965V21.1114C135.985 21.1829 135.96 21.2436 135.91 21.2932C135.86 21.3433 135.8 21.3682 135.728 21.3682H133.245C133.174 21.3682 133.113 21.3433 133.063 21.2932Z" fill="#9A80FF"/>
<path d="M63.906 41.0501C63.1751 40.6706 62.6094 40.1403 62.2088 39.4583C61.8082 38.7766 61.6079 37.993 61.6079 37.1075V31.0355C61.6079 30.1363 61.8082 29.3456 62.2088 28.6636C62.6094 27.9819 63.1751 27.4549 63.906 27.0824C64.6366 26.7102 65.4799 26.5237 66.436 26.5237C67.3774 26.5237 68.2102 26.7102 68.9344 27.0824C69.6582 27.4549 70.2204 27.9714 70.621 28.632C71.0216 29.2929 71.2219 30.0519 71.2219 30.909V31.2042C71.2219 31.3447 71.1513 31.415 71.0111 31.415H70.3153C70.1748 31.415 70.1045 31.3447 70.1045 31.2042V30.9301C70.1045 29.9181 69.7671 29.0958 69.0925 28.4633C68.4178 27.8308 67.5323 27.5146 66.436 27.5146C65.3256 27.5146 64.4296 27.8344 63.7479 28.4739C63.0659 29.1137 62.7253 29.9532 62.7253 30.9933V37.1497C62.7253 38.1901 63.0659 39.0296 63.7479 39.6691C64.4296 40.309 65.3323 40.6284 66.4571 40.6284C67.5534 40.6284 68.4354 40.3227 69.103 39.7113C69.7703 39.0999 70.1045 38.2882 70.1045 37.2762V35.1467C70.1045 35.0908 70.076 35.0624 70.0201 35.0624H66.7311C66.5906 35.0624 66.5203 34.9921 66.5203 34.8516V34.2823C66.5203 34.1421 66.5906 34.0715 66.7311 34.0715H71.0111C71.1513 34.0715 71.2219 34.1421 71.2219 34.2823V37.0232C71.2219 38.4431 70.7862 39.5637 69.9147 40.3859C69.043 41.2082 67.8834 41.6193 66.436 41.6193C65.4799 41.6193 64.6366 41.4296 63.906 41.0501Z" fill="white"/>
<path d="M83.6606 41.282L82.754 38.4779C82.74 38.4358 82.7119 38.4147 82.6697 38.4147H76.0917C76.0496 38.4147 76.0211 38.4358 76.0074 38.4779L75.1219 41.282C75.0797 41.3948 74.9954 41.4507 74.8689 41.4507H74.131C73.9761 41.4507 73.9202 41.3737 73.9623 41.2188L78.6428 26.861C78.685 26.7486 78.7693 26.6924 78.8958 26.6924H79.8446C79.9711 26.6924 80.0554 26.7486 80.0975 26.861L84.7991 41.2188L84.8202 41.3031C84.8202 41.4015 84.757 41.4507 84.6305 41.4507H83.9136C83.7871 41.4507 83.7028 41.3945 83.6606 41.282ZM76.3553 37.4554C76.3764 37.4765 76.4006 37.487 76.4291 37.487H82.3324C82.3605 37.487 82.3851 37.4765 82.4062 37.4554C82.4273 37.4343 82.4304 37.41 82.4167 37.3816L79.444 28.2104C79.4299 28.1823 79.4088 28.1682 79.3807 28.1682C79.3523 28.1682 79.3312 28.1823 79.3175 28.2104L76.3447 37.3816C76.3307 37.4097 76.3342 37.4343 76.3553 37.4554Z" fill="white"/>
<path d="M97.8073 26.6924H98.5241C98.6644 26.6924 98.735 26.763 98.735 26.9032V41.2399C98.735 41.3804 98.6644 41.4507 98.5241 41.4507H97.8284C97.6878 41.4507 97.6176 41.3804 97.6176 41.2399V28.864C97.6176 28.8218 97.6035 28.7975 97.5754 28.7902C97.547 28.7831 97.5259 28.8007 97.5122 28.8429L93.8015 34.5775C93.7309 34.6759 93.6466 34.7251 93.5485 34.7251H93.1901C93.0917 34.7251 93.0074 34.6759 92.9371 34.5775L89.1843 28.864C89.1702 28.8218 89.1491 28.8081 89.121 28.8218C89.0926 28.8358 89.0788 28.864 89.0788 28.9061V41.2399C89.0788 41.3804 89.0082 41.4507 88.868 41.4507H88.1723C88.0317 41.4507 87.9614 41.3804 87.9614 41.2399V26.9032C87.9614 26.763 88.0317 26.6924 88.1723 26.6924H88.9102C89.0082 26.6924 89.0926 26.7419 89.1632 26.84L93.2955 33.165C93.3092 33.179 93.3303 33.186 93.3587 33.186C93.3869 33.186 93.4079 33.179 93.422 33.165L97.5543 26.84C97.6243 26.7416 97.7086 26.6924 97.8073 26.6924Z" fill="white"/>
<path d="M112.459 27.6833H104.469C104.413 27.6833 104.385 27.7117 104.385 27.7676V33.4601C104.385 33.5163 104.413 33.5445 104.469 33.5445H110.14C110.28 33.5445 110.351 33.615 110.351 33.7553V34.3245C110.351 34.4651 110.28 34.5354 110.14 34.5354H104.469C104.413 34.5354 104.385 34.5638 104.385 34.6197V40.3754C104.385 40.4317 104.413 40.4598 104.469 40.4598H112.459C112.6 40.4598 112.67 40.5304 112.67 40.6706V41.2399C112.67 41.3804 112.6 41.4507 112.459 41.4507H103.478C103.337 41.4507 103.267 41.3804 103.267 41.2399V26.9032C103.267 26.763 103.337 26.6924 103.478 26.6924H112.459C112.6 26.6924 112.67 26.763 112.67 26.9032V27.4725C112.67 27.613 112.6 27.6833 112.459 27.6833Z" fill="white"/>
<path d="M116.76 40.5757C115.86 39.8799 115.411 38.9491 115.411 37.7822V37.0864C115.411 36.9462 115.481 36.8756 115.621 36.8756H116.275C116.415 36.8756 116.486 36.9462 116.486 37.0864V37.7189C116.486 38.5907 116.844 39.2931 117.561 39.8272C118.278 40.3617 119.262 40.6284 120.513 40.6284C121.679 40.6284 122.572 40.3859 123.19 39.901C123.809 39.4161 124.118 38.745 124.118 37.8876C124.118 37.3678 123.981 36.9145 123.707 36.5277C123.433 36.1412 123.011 35.7792 122.442 35.4419C121.873 35.1046 121.068 34.7181 120.028 34.2823C118.932 33.8185 118.106 33.432 117.551 33.1228C116.995 32.8138 116.549 32.4238 116.212 31.9526C115.874 31.4818 115.706 30.8742 115.706 30.1289C115.706 28.9767 116.103 28.0874 116.897 27.4619C117.691 26.8367 118.791 26.5237 120.197 26.5237C121.728 26.5237 122.93 26.8751 123.802 27.5778C124.673 28.2809 125.109 29.2223 125.109 30.403V30.8879C125.109 31.0285 125.038 31.0988 124.898 31.0988H124.202C124.062 31.0988 123.992 31.0285 123.992 30.8879V30.4663C123.992 29.5808 123.654 28.8674 122.98 28.3263C122.305 27.7855 121.356 27.5146 120.133 27.5146C119.065 27.5146 118.243 27.736 117.667 28.1787C117.09 28.6215 116.802 29.2575 116.802 30.0868C116.802 30.649 116.936 31.1061 117.203 31.4572C117.469 31.8086 117.853 32.1143 118.352 32.3743C118.85 32.6346 119.62 32.9752 120.66 33.3968C121.7 33.8185 122.54 34.2226 123.18 34.6091C123.819 34.996 124.322 35.4493 124.687 35.969C125.053 36.489 125.235 37.1148 125.235 37.8454C125.235 38.9839 124.814 39.8978 123.97 40.5862C123.127 41.275 121.946 41.6193 120.428 41.6193C118.882 41.6193 117.66 41.2714 116.76 40.5757Z" fill="white"/>
<path d="M6.65905 14.3281C5.51991 10.6254 5.32761 6.96841 6.31277 3.22485C6.74402 3.25871 7.13598 3.28108 7.52602 3.32133C9.47718 3.5213 11.3999 3.86885 13.2709 4.46973C14.5004 4.86456 15.6837 5.36481 16.7736 6.06662C17.5668 6.57742 18.2785 7.17989 18.8477 7.9392C19.7875 9.19334 20.0664 10.4935 19.9498 12.1514C19.9217 12.551 19.87 12.9401 19.7451 13.394C18.16 12.2386 16.5231 11.2959 14.8253 10.4571C13.1374 9.62299 11.4037 8.90009 9.60176 8.27111C8.88493 10.4088 7.88379 12.3817 6.65905 14.3281ZM20.7995 26.7203C20.8053 25.2617 19.7201 24.1647 18.2536 24.1641C16.7202 24.1637 15.7076 25.3562 15.7044 26.7183C15.7012 28.1354 16.8477 29.2665 18.2673 29.2608C19.6131 29.2397 20.7935 28.2446 20.7995 26.7203ZM49.9938 27.4112C49.82 25.8488 49.2914 24.3902 48.6525 22.9687C47.4913 20.3854 46.1953 18.3742 44.5831 16.0524C44.3397 15.7017 44.2972 15.632 44.2116 15.5298C44.1937 16.722 44.2675 17.9362 44.285 19.1836C41.2459 16.6434 37.7045 15.864 33.8833 15.9633C34.0095 14.8909 34.327 13.9246 34.9081 13.02C33.2118 14 31.5153 14.9801 29.7833 15.9809C29.0134 13.9368 28.6262 11.8856 29.0278 9.70509C28.9492 9.79677 28.4854 10.4213 28.1174 11.2442C27.5807 12.4443 27.2862 13.7227 27.0271 15.0069C26.6521 16.8657 26.4166 18.7441 26.2502 20.632C25.8643 25.0064 25.7647 29.3889 25.8873 33.7771C25.8924 33.955 25.9234 34.1387 25.978 34.308C26.5473 36.0736 27.665 37.3347 29.4101 38.0135C29.5274 38.0592 29.6443 38.1055 29.7877 38.1618C29.7462 38.3247 29.7152 38.479 29.6676 38.6275C29.3172 39.7239 28.663 40.6145 27.7966 41.3565C27.0942 41.9584 26.3796 42.342 25.5196 42.6762C25.4609 42.6988 25.3411 42.7349 25.267 42.7493C25.1929 42.7349 25.0731 42.6988 25.0143 42.6762C24.154 42.342 23.4394 41.9584 22.7373 41.3565C21.871 40.6145 21.2171 39.7239 20.8663 38.6275C20.8187 38.4787 20.7877 38.3247 20.7462 38.1618C20.8893 38.1055 21.0065 38.0592 21.1238 38.0135C22.8686 37.3347 23.9863 36.0736 24.5559 34.308C24.6105 34.1384 24.6418 33.955 24.6466 33.7771C24.7693 29.3889 24.6696 25.0064 24.2837 20.632C24.1173 18.7441 23.8815 16.8657 23.5068 15.0069C23.2478 13.7227 22.9532 12.444 22.4166 11.2442C22.0486 10.4216 21.5847 9.79677 21.5062 9.70509C21.9077 11.8853 21.5205 13.9368 20.7507 15.9809C19.0183 14.9801 17.3221 14 15.6258 13.02C16.2066 13.9243 16.5241 14.8906 16.6506 15.9633C12.8297 15.864 9.28839 16.6434 6.2492 19.1839C6.26677 17.9365 6.34056 16.7223 6.32267 15.5301C6.23706 15.6324 6.19489 15.7023 5.95116 16.0528C4.33893 18.3745 3.04294 20.3857 1.88177 22.969C1.24288 24.3906 0.71388 25.8491 0.540422 27.4115C0.434367 28.3664 0.488672 29.3036 0.912893 30.1904C1.2678 30.9324 1.7706 31.5579 2.39032 32.0936C3.28796 32.8689 4.31752 33.4209 5.41769 33.84C8.21602 34.9063 11.0543 35.2813 14.0283 35.3705C14.0599 35.3714 14.1746 35.3781 14.2065 35.3721C13.461 35.0996 12.7454 34.8031 12.0653 34.4256C10.1189 33.3446 8.62267 31.8368 7.6851 29.8C7.27493 28.9094 7.18325 27.984 7.38003 27.0256C7.6145 25.8836 8.15468 24.8889 8.87119 23.9874C10.309 22.1781 12.1295 20.8843 14.2762 20.0458C15.4591 19.5836 16.6826 19.3267 17.9594 19.4143C19.4234 19.5146 20.65 20.0889 21.5573 21.2725C21.8965 21.7149 22.1613 22.2011 22.3514 22.7237C22.9424 24.3474 23.09 26.022 22.8462 27.7243C22.6347 29.2014 21.915 30.4044 20.7385 31.325C20.4038 31.587 20.0514 31.8275 19.7026 32.0713C19.3972 32.2846 19.0758 32.476 18.7787 32.6999C18.4737 32.9299 18.1696 33.1682 17.9003 33.4378C17.3646 33.9739 17.1045 34.6322 17.1058 35.3954C17.1065 35.8356 17.1572 36.2684 17.2841 36.6875C17.8913 38.6956 18.8123 40.541 20.1619 42.1587C20.5862 42.6672 21.0653 43.1205 21.5946 43.5201C22.7188 44.3682 23.9435 44.7787 25.2673 44.7752C26.5914 44.7787 27.8158 44.3679 28.9399 43.5201C29.4692 43.1208 29.9484 42.6672 30.3726 42.1587C31.7223 40.541 32.6432 38.6956 33.2505 36.6875C33.3773 36.2684 33.4281 35.8356 33.4287 35.3954C33.43 34.6322 33.1697 33.9735 32.6343 33.4378C32.365 33.1682 32.0609 32.9302 31.7558 32.6999C31.4587 32.476 31.1374 32.2846 30.8323 32.0713C30.4835 31.8275 30.1315 31.587 29.7964 31.325C28.6198 30.4044 27.8998 29.2014 27.6887 27.7243C27.4452 26.0223 27.5928 24.3474 28.1835 22.7237C28.3736 22.2011 28.6384 21.7149 28.9776 21.2725C29.8848 20.0889 31.1115 19.5146 32.5755 19.4143C33.8523 19.3267 35.0758 19.5836 36.2587 20.0458C38.4054 20.8843 40.2259 22.1784 41.6637 23.9874C42.3802 24.8889 42.9204 25.8836 43.1549 27.0256C43.3516 27.984 43.2599 28.9091 42.8498 29.8C41.9122 31.8365 40.4159 33.3446 38.4696 34.4256C37.7895 34.8031 37.0742 35.0996 36.3283 35.3721C36.3603 35.3781 36.475 35.3714 36.5066 35.3705C39.4806 35.2813 42.3189 34.9063 45.1172 33.84C46.2174 33.4209 47.2469 32.8692 48.1446 32.0936C48.7643 31.5582 49.2671 30.9324 49.622 30.1904C50.0453 29.3033 50.0999 28.366 49.9938 27.4112ZM30.7895 13.3937C32.3746 12.2383 34.0114 11.2956 35.7093 10.4567C37.3972 9.62267 39.1308 8.89977 40.9328 8.27079C41.6493 10.4088 42.6505 12.382 43.8752 14.3284C45.0143 10.6257 45.2066 6.96873 44.2215 3.22517C43.7902 3.25903 43.3983 3.2814 43.0082 3.32164C41.0571 3.52162 39.1343 3.86917 37.2634 4.47004C36.0338 4.86488 34.8506 5.36513 33.7607 6.06694C32.9675 6.57773 32.2558 7.18021 31.6865 7.93952C30.7467 9.19366 30.4678 10.4938 30.5844 12.1517C30.6129 12.551 30.6643 12.9401 30.7895 13.3937ZM32.281 24.1641C30.8141 24.1644 29.7293 25.2617 29.735 26.7203C29.7408 28.2446 30.9214 29.2397 32.2673 29.2608C33.6869 29.2665 34.8333 28.1351 34.8301 26.7183C34.827 25.3562 33.8143 24.1637 32.281 24.1641Z" fill="url(#paint0_linear_541_1471)"/>
</g>
<defs>
<linearGradient id="paint0_linear_541_1471" x1="14.7449" y1="39.6253" x2="37.8759" y2="-0.438805" gradientUnits="userSpaceOnUse">
<stop stop-color="#6E4AF8"/>
<stop offset="1" stop-color="#9A80FF"/>
</linearGradient>
<clipPath id="clip0_541_1471">
<rect width="140" height="47" fill="white" transform="translate(0.493652 0.5)"/>
</clipPath>
</defs>
</svg>
